<?xml version="1.0" encoding="UTF-8" standalone="no"?>
<!-- Created with Inkscape (http://www.inkscape.org/) -->

<svg
   xmlns:dc="http://purl.org/dc/elements/1.1/"
   xmlns:cc="http://creativecommons.org/ns#"
   xmlns:rdf="http://www.w3.org/1999/02/22-rdf-syntax-ns#"
   xmlns:svg="http://www.w3.org/2000/svg"
   xmlns="http://www.w3.org/2000/svg"
   xmlns:xlink="http://www.w3.org/1999/xlink"
   xmlns:sodipodi="http://sodipodi.sourceforge.net/DTD/sodipodi-0.dtd"
   xmlns:inkscape="http://www.inkscape.org/namespaces/inkscape"
   width="61"
   height="96"
   id="svg2"
   sodipodi:version="0.32"
   inkscape:version="0.47 r22583"
   version="1.0"
   sodipodi:docname="Back-forward small.svg"
   inkscape:output_extension="org.inkscape.output.svg.inkscape"
   inkscape:export-filename="F:\Design\Qute\Back forward\back-forward-small.png"
   inkscape:export-xdpi="90"
   inkscape:export-ydpi="90">
  <defs
     id="defs4">
    <linearGradient
       id="linearGradient3767">
      <stop
         id="stop3769"
         offset="0"
         style="stop-color:#ffffff;stop-opacity:1;" />
      <stop
         id="stop3771"
         offset="1"
         style="stop-color:#ffffff;stop-opacity:0.251" />
    </linearGradient>
    <linearGradient
       inkscape:collect="always"
       xlink:href="#linearGradient3787"
       id="linearGradient3779"
       gradientUnits="userSpaceOnUse"
       gradientTransform="matrix(1,0,0,0.95454523,-7.4999999,72.181846)"
       x1="290.5"
       y1="176.33333"
       x2="290.5"
       y2="168.4762" />
    <linearGradient
       id="linearGradient3787">
      <stop
         id="stop3789"
         offset="0"
         style="stop-color:#ffffff;stop-opacity:0.54901963;" />
      <stop
         id="stop3792"
         offset="1"
         style="stop-color:#ffffff;stop-opacity:0.3137255;" />
    </linearGradient>
    <linearGradient
       inkscape:collect="always"
       xlink:href="#linearGradient3767"
       id="linearGradient5082"
       gradientUnits="userSpaceOnUse"
       gradientTransform="translate(-7.4999999,15.499998)"
       x1="292"
       y1="174.99998"
       x2="292"
       y2="180.99998" />
    <linearGradient
       inkscape:collect="always"
       id="linearGradient3851">
      <stop
         style="stop-color:#ffffff;stop-opacity:1;"
         offset="0"
         id="stop3853" />
      <stop
         style="stop-color:#ffffff;stop-opacity:0"
         offset="1"
         id="stop3855" />
    </linearGradient>
    <linearGradient
       id="linearGradient3221">
      <stop
         id="stop3188-28"
         offset="0"
         style="stop-color:#b4b4b4;stop-opacity:1;" />
      <stop
         style="stop-color:#f0f0f0;stop-opacity:1;"
         offset="1"
         id="stop3225" />
    </linearGradient>
    <linearGradient
       id="linearGradient3196">
      <stop
         id="stop3198-1"
         offset="0"
         style="stop-color:#8c8c8c;stop-opacity:1;" />
      <stop
         id="stop3200"
         offset="1"
         style="stop-color:#d2d2d2;stop-opacity:1;" />
    </linearGradient>
    <linearGradient
       inkscape:collect="always"
       xlink:href="#linearGradient3196"
       id="linearGradient3954"
       x1="17.5"
       y1="21.5"
       x2="17.5"
       y2="2.5"
       gradientUnits="userSpaceOnUse"
       gradientTransform="translate(229,156.99999)" />
    <linearGradient
       inkscape:collect="always"
       xlink:href="#linearGradient3221"
       id="linearGradient3956"
       gradientUnits="userSpaceOnUse"
       x1="7.5"
       y1="20.5"
       x2="7.5"
       y2="2.5"
       gradientTransform="translate(229,156.99999)" />
    <linearGradient
       inkscape:collect="always"
       xlink:href="#linearGradient3851"
       id="linearGradient3713"
       gradientUnits="userSpaceOnUse"
       gradientTransform="translate(-228.5,-156.49999)"
       x1="238.5"
       y1="161.99998"
       x2="238.5"
       y2="174.99998" />
    <linearGradient
       id="linearGradient3219">
      <stop
         style="stop-color:#4baf2d;stop-opacity:1"
         offset="0"
         id="stop3221" />
      <stop
         style="stop-color:#1c6f1c;stop-opacity:1;"
         offset="1"
         id="stop3223" />
    </linearGradient>
    <filter
       inkscape:collect="always"
       id="filter3762"
       x="-0.084705882"
       width="1.1694118"
       y="-0.11076923"
       height="1.2215385">
      <feGaussianBlur
         inkscape:collect="always"
         stdDeviation="0.6"
         id="feGaussianBlur3764" />
    </filter>
    <linearGradient
       id="linearGradient3179">
      <stop
         style="stop-color:#90dc78;stop-opacity:1;"
         offset="0"
         id="stop3181" />
      <stop
         style="stop-color:#339533;stop-opacity:1;"
         offset="1"
         id="stop3183" />
    </linearGradient>
    <linearGradient
       id="linearGradient3219-1">
      <stop
         style="stop-color:#aaaaaa;stop-opacity:1;"
         offset="0"
         id="stop3221-6" />
      <stop
         style="stop-color:#828282;stop-opacity:1;"
         offset="1"
         id="stop3223-8" />
    </linearGradient>
    <linearGradient
       inkscape:collect="always"
       xlink:href="#linearGradient3221-2"
       id="linearGradient4554"
       gradientUnits="userSpaceOnUse"
       gradientTransform="translate(229,229.99999)"
       x1="7.5"
       y1="20.5"
       x2="7.5"
       y2="2.5" />
    <linearGradient
       inkscape:collect="always"
       xlink:href="#linearGradient3851"
       id="linearGradient4558"
       gradientUnits="userSpaceOnUse"
       gradientTransform="translate(0,73)"
       x1="238.5"
       y1="161.99998"
       x2="238.5"
       y2="174.99998" />
    <linearGradient
       inkscape:collect="always"
       xlink:href="#linearGradient3219-7"
       id="linearGradient4560"
       gradientUnits="userSpaceOnUse"
       gradientTransform="translate(0.75,-2.75001)"
       x1="243.75"
       y1="240.25"
       x2="243.75"
       y2="248.25" />
    <linearGradient
       inkscape:collect="always"
       xlink:href="#linearGradient3219"
       id="linearGradient4576"
       gradientUnits="userSpaceOnUse"
       gradientTransform="translate(0.75,-75.75001)"
       x1="243.75"
       y1="240.25"
       x2="243.75"
       y2="248.25" />
    <linearGradient
       inkscape:collect="always"
       xlink:href="#linearGradient3179"
       id="linearGradient4603"
       gradientUnits="userSpaceOnUse"
       x1="244.5"
       y1="183.49998"
       x2="244.5"
       y2="201.49998"
       gradientTransform="translate(-228.5,-156.49999)" />
    <linearGradient
       id="linearGradient3219-7">
      <stop
         style="stop-color:#3d8f24;stop-opacity:1;"
         offset="0"
         id="stop3221-7" />
      <stop
         style="stop-color:#145014;stop-opacity:1;"
         offset="1"
         id="stop3223-1" />
    </linearGradient>
    <linearGradient
       id="linearGradient3221-2">
      <stop
         id="stop3188"
         offset="0"
         style="stop-color:#828282;stop-opacity:1;" />
      <stop
         style="stop-color:#dcdcdc;stop-opacity:1;"
         offset="1"
         id="stop2586" />
    </linearGradient>
    <linearGradient
       inkscape:collect="always"
       xlink:href="#linearGradient3219-1"
       id="linearGradient4677"
       gradientUnits="userSpaceOnUse"
       gradientTransform="translate(0.75,-27.75001)"
       x1="243.75"
       y1="240.25"
       x2="243.75"
       y2="248.25" />
  </defs>
  <sodipodi:namedview
     id="base"
     pagecolor="#000000"
     bordercolor="#666666"
     borderopacity="1.0"
     gridtolerance="10000"
     guidetolerance="10"
     objecttolerance="10"
     inkscape:pageopacity="0"
     inkscape:pageshadow="2"
     inkscape:zoom="2.3130607"
     inkscape:cx="57.375921"
     inkscape:cy="62.905634"
     inkscape:document-units="px"
     inkscape:current-layer="layer1"
     width="32px"
     height="32px"
     inkscape:window-width="1157"
     inkscape:window-height="1015"
     inkscape:window-x="1032"
     inkscape:window-y="219"
     showgrid="false"
     inkscape:grid-points="true"
     showborder="true"
     inkscape:showpageshadow="false"
     borderlayer="false"
     showguides="true"
     inkscape:guide-bbox="true"
     inkscape:window-maximized="0">
    <inkscape:grid
       id="GridFromPre046Settings"
       type="xygrid"
       originx="0px"
       originy="0px"
       spacingx="0.5px"
       spacingy="0.5px"
       color="#0000ff"
       empcolor="#0000ff"
       opacity="0.2"
       empopacity="0.4"
       empspacing="4"
       visible="true"
       enabled="true"
       dotted="false"
       snapvisiblegridlinesonly="true" />
  </sodipodi:namedview>
  <metadata
     id="metadata7">
    <rdf:RDF>
      <cc:Work
         rdf:about="">
        <dc:format>image/svg+xml</dc:format>
        <dc:type
           rdf:resource="http://purl.org/dc/dcmitype/StillImage" />
        <dc:creator>
          <cc:Agent>
            <dc:title>Arvid Axelsson</dc:title>
          </cc:Agent>
        </dc:creator>
        <cc:license
           rdf:resource="http://creativecommons.org/licenses/by-sa/3.0/" />
        <dc:title />
      </cc:Work>
      <cc:License
         rdf:about="http://creativecommons.org/licenses/by-sa/3.0/">
        <cc:permits
           rdf:resource="http://creativecommons.org/ns#Reproduction" />
        <cc:permits
           rdf:resource="http://creativecommons.org/ns#Distribution" />
        <cc:requires
           rdf:resource="http://creativecommons.org/ns#Notice" />
        <cc:requires
           rdf:resource="http://creativecommons.org/ns#Attribution" />
        <cc:permits
           rdf:resource="http://creativecommons.org/ns#DerivativeWorks" />
        <cc:requires
           rdf:resource="http://creativecommons.org/ns#ShareAlike" />
      </cc:License>
    </rdf:RDF>
  </metadata>
  <g
     inkscape:label="Layer 1"
     inkscape:groupmode="layer"
     id="layer1"
     style="display:inline"
     transform="translate(-228.5,-156.49999)">
    <path
       style="fill:url(#linearGradient3956);fill-opacity:1;stroke:url(#linearGradient3954);stroke-width:1;stroke-miterlimit:4;stroke-opacity:1;stroke-dasharray:none"
       d="m 234,159.99999 16,0 0,17 -16,0 c -2.77,0 -5,-2.23 -5,-5 l 0,-7 c 0,-2.77 2.23,-5 5,-5 z"
       id="rect4967"
       sodipodi:nodetypes="ccccccc" />
    <path
       sodipodi:nodetypes="cccc"
       id="path3253"
       d="m 286,167.49999 -6,0 3,4 3,-4 z"
       style="opacity:0.5;fill:none;stroke:#ffffff;stroke-width:2;stroke-linecap:butt;stroke-linejoin:round;stroke-miterlimit:4;stroke-opacity:1;stroke-dasharray:none;display:inline" />
    <path
       style="fill:#000000;fill-opacity:1;fill-rule:evenodd;stroke:none;display:inline"
       d="m 286,167.49999 -6,0 3,4 3,-4 z"
       id="path3406"
       sodipodi:nodetypes="cccc" />
    <path
       style="opacity:0.5;fill:none;stroke:#ffffff;stroke-width:2;stroke-linecap:butt;stroke-linejoin:round;stroke-miterlimit:4;stroke-opacity:1;stroke-dasharray:none;display:inline"
       d="m 286,215.49999 -6,0 3,4 3,-4 z"
       id="path2913"
       sodipodi:nodetypes="cccc" />
    <path
       sodipodi:nodetypes="cccc"
       id="path2915"
       d="m 286,215.49999 -6,0 3,4 3,-4 z"
       style="opacity:0.3;fill:#000000;fill-opacity:1;fill-rule:evenodd;stroke:none;display:inline" />
    <rect
       rx="3"
       y="231.49997"
       x="276.5"
       height="18.000021"
       width="13"
       id="rect3772"
       style="fill:#95a2ab;fill-opacity:1;stroke:none;display:inline" />
    <rect
       style="fill:url(#linearGradient3779);fill-opacity:1;stroke:none;display:inline"
       id="rect3774"
       width="11"
       height="15.500006"
       x="277.5"
       y="232.99998"
       rx="2" />
    <path
       style="fill:#000000;fill-opacity:1;fill-rule:evenodd;stroke:none;display:inline"
       d="m 286.00001,240.49997 -6,0 3,4 3,-4 z"
       id="path2935"
       sodipodi:nodetypes="cccc" />
    <rect
       rx="3"
       y="183.49998"
       x="276.5"
       height="18.000006"
       width="13"
       id="rect5074"
       style="fill:#b3c3c9;fill-opacity:1;stroke:none;display:inline" />
    <rect
       style="fill:url(#linearGradient5082);fill-opacity:1;stroke:none;display:inline"
       id="rect5076"
       width="11"
       height="16.000006"
       x="277.5"
       y="184.49998"
       rx="2" />
    <path
       style="fill:#000000;fill-opacity:1;fill-rule:evenodd;stroke:none;display:inline"
       d="m 286.00001,191.49999 -6,0 3,4 3,-4 z"
       id="path5078"
       sodipodi:nodetypes="cccc" />
    <rect
       rx="1.5"
       y="184.99998"
       x="278"
       height="15.000006"
       width="10"
       id="rect5080"
       style="opacity:0.5;fill:none;stroke:#ffffff;stroke-opacity:1;display:inline" />
    <path
       style="fill:url(#linearGradient3713);fill-opacity:1;stroke:none;stroke-width:1;stroke-miterlimit:4;stroke-opacity:1;stroke-dasharray:none;filter:url(#filter3762)"
       d="M 5.5 5.5 C 3.80341 5.5 2.5 6.80341 2.5 8.5 L 2.5 15.5 C 2.5 17.19659 3.80341 18.5 5.5 18.5 L 19.5 18.5 L 19.5 5.5 L 5.5 5.5 z "
       transform="translate(228.5,156.49999)"
       id="path3958" />
    <path
       sodipodi:nodetypes="ccccc"
       d="m 244.5,169.49999 -8,0 4,4 m 0,-8 -4,4"
       style="fill:none;stroke:#ffffff;stroke-width:2;stroke-linecap:round;stroke-linejoin:round;stroke-miterlimit:4;stroke-opacity:1;stroke-dasharray:none;display:inline"
       id="path3177" />
    <path
       id="path3218"
       style="fill:none;stroke:url(#linearGradient4576);stroke-width:2;stroke-linecap:round;stroke-linejoin:round;stroke-miterlimit:4;stroke-opacity:1;stroke-dasharray:none;display:inline"
       d="m 244.5,168.49999 -8,0 4,4 m 0,-8 -4,4"
       sodipodi:nodetypes="ccccc" />
    <use
       x="0"
       y="0"
       xlink:href="#rect4967"
       id="use3734"
       transform="matrix(-1,0,0,1,505,0)"
       width="61"
       height="96" />
    <use
       x="0"
       y="0"
       xlink:href="#path3958"
       id="use3736"
       transform="matrix(-1,0,0,1,505,0)"
       width="61"
       height="96" />
    <use
       x="0"
       y="0"
       xlink:href="#path3177"
       id="use3738"
       transform="matrix(-1,0,0,1,505,0)"
       width="61"
       height="96" />
    <use
       x="0"
       y="0"
       xlink:href="#path3218"
       id="use3740"
       transform="matrix(-1,0,0,1,505,0)"
       width="61"
       height="96" />
    <use
       x="0"
       y="0"
       xlink:href="#rect4967"
       id="use3801"
       transform="translate(0,24)"
       width="61"
       height="96"
       style="stroke:none" />
    <use
       x="0"
       y="0"
       xlink:href="#path3958"
       id="use3803"
       transform="translate(0,24)"
       width="61"
       height="96" />
    <use
       x="0"
       y="0"
       xlink:href="#path3177"
       id="use3805"
       transform="translate(0,24)"
       width="61"
       height="96" />
    <use
       x="0"
       y="0"
       xlink:href="#path3218"
       id="use3807"
       transform="translate(0,24)"
       width="61"
       height="96" />
    <use
       x="0"
       y="0"
       xlink:href="#use3801"
       id="use3866"
       transform="matrix(-1,0,0,1,505,0)"
       width="61"
       height="96" />
    <use
       x="0"
       y="0"
       xlink:href="#use3803"
       id="use3868"
       transform="matrix(-1,0,0,1,505,0)"
       width="61"
       height="96" />
    <use
       x="0"
       y="0"
       xlink:href="#use3805"
       id="use3870"
       transform="matrix(-1,0,0,1,505,0)"
       width="61"
       height="96" />
    <use
       x="0"
       y="0"
       xlink:href="#use3807"
       id="use3872"
       transform="matrix(-1,0,0,1,505,0)"
       width="61"
       height="96" />
    <use
       x="0"
       y="0"
       xlink:href="#use3815"
       id="use3874"
       transform="matrix(-1,0,0,1,505,0)"
       width="61"
       height="96" />
    <use
       x="0"
       y="0"
       xlink:href="#rect4967"
       id="use3876"
       transform="translate(0,48)"
       width="61"
       height="96" />
    <use
       x="0"
       y="0"
       xlink:href="#path3958"
       id="use3878"
       transform="translate(0,48)"
       width="61"
       height="96" />
    <use
       x="0"
       y="0"
       xlink:href="#path3177"
       id="use3880"
       transform="translate(0,48)"
       width="61"
       height="96" />
    <path
       id="path3218-2"
       style="fill:none;stroke:url(#linearGradient4677);stroke-width:2;stroke-linecap:round;stroke-linejoin:round;stroke-miterlimit:4;stroke-opacity:1;stroke-dasharray:none;display:inline"
       d="m 244.5,216.49999 -8,0 4,4 m 0,-8 -4,4"
       sodipodi:nodetypes="ccccc" />
    <use
       x="0"
       y="0"
       xlink:href="#use3876"
       id="use3903"
       transform="matrix(-1,0,0,1,505,0)"
       width="61"
       height="96" />
    <use
       x="0"
       y="0"
       xlink:href="#use3878"
       id="use3905"
       transform="matrix(-1,0,0,1,505,0)"
       width="61"
       height="96" />
    <use
       x="0"
       y="0"
       xlink:href="#use3880"
       id="use3907"
       transform="matrix(-1,0,0,1,505,0)"
       width="61"
       height="96" />
    <use
       x="0"
       y="0"
       xlink:href="#path3218-2"
       id="use3909"
       transform="matrix(-1,0,0,1,505,0)"
       width="61"
       height="96" />
    <path
       style="fill:#787878;fill-opacity:1;stroke:#787878;stroke-width:1;stroke-miterlimit:4;stroke-opacity:1;stroke-dasharray:none"
       d="m 234,231.99999 16,0 0,17 -16,0 c -2.77,0 -5,-2.23 -5,-5 l 0,-7 c 0,-2.77 2.23,-5 5,-5 z"
       id="path4647"
       sodipodi:nodetypes="ccccccc" />
    <path
       sodipodi:nodetypes="ccccccc"
       id="path4538"
       d="m 234,232.99999 16,0 0,16 -16,0 c -2.77,0 -5,-2.23 -5,-5 l 0,-6 c 0,-2.77 2.23,-5 5,-5 z"
       style="fill:url(#linearGradient4554);fill-opacity:1;stroke:none;stroke-width:1;stroke-miterlimit:4;stroke-opacity:1;stroke-dasharray:none" />
    <path
       id="path4540"
       d="m 234,234.99999 c -1.69659,0 -3,1.30341 -3,3 l 0,7 c 0,1.69659 1.30341,3 3,3 l 14,0 0,-13 -14,0 z"
       style="fill:url(#linearGradient4558);fill-opacity:1;stroke:none;filter:url(#filter3762);opacity:0.5" />
    <path
       id="path4542"
       style="fill:none;stroke:#ffffff;stroke-width:2;stroke-linecap:round;stroke-linejoin:round;stroke-miterlimit:4;stroke-opacity:1;stroke-dasharray:none;display:inline;opacity:0.5"
       d="m 244.5,242.49999 -8,0 4,4 m 0,-8 -4,4"
       sodipodi:nodetypes="ccccc" />
    <path
       sodipodi:nodetypes="ccccc"
       d="m 244.5,241.49999 -8,0 4,4 m 0,-8 -4,4"
       style="fill:none;stroke:url(#linearGradient4560);stroke-width:2;stroke-linecap:round;stroke-linejoin:round;stroke-miterlimit:4;stroke-opacity:1;stroke-dasharray:none;display:inline"
       id="path4544" />
    <path
       style="font-size:medium;font-style:normal;font-variant:normal;font-weight:normal;font-stretch:normal;text-indent:0;text-align:start;text-decoration:none;line-height:normal;letter-spacing:normal;word-spacing:normal;text-transform:none;direction:ltr;block-progression:tb;writing-mode:lr-tb;text-anchor:start;color:#000000;fill:url(#linearGradient4603);fill-opacity:1;fill-rule:nonzero;stroke:none;stroke-width:3;marker:none;visibility:visible;display:inline;overflow:visible;enable-background:accumulate;font-family:Bitstream Vera Sans;-inkscape-font-specification:Bitstream Vera Sans"
       d="M 5.5 27 C 2.46165 27 0 29.46165 0 32.5 L 0 39.5 C 0 42.53835 2.46165 45 5.5 45 L 21.5 45 L 22 45 L 22 44.5 L 22 27.5 L 22 27 L 21.5 27 L 5.5 27 z M 5.5 28.5 L 20.5 28.5 L 20.5 43.5 L 5.5 43.5 C 3.2667 43.5 1.5 41.7333 1.5 39.5 L 1.5 32.5 C 1.5 30.2667 3.2667 28.5 5.5 28.5 z "
       transform="translate(228.5,156.49999)"
       id="use3815" />
    <use
       x="0"
       y="0"
       xlink:href="#path4647"
       id="use4653"
       transform="matrix(-1,0,0,1,505,0)"
       width="61"
       height="96" />
    <use
       x="0"
       y="0"
       xlink:href="#path4538"
       id="use4655"
       transform="matrix(-1,0,0,1,505,0)"
       width="61"
       height="96" />
    <use
       x="0"
       y="0"
       xlink:href="#path4540"
       id="use4657"
       transform="matrix(-1,0,0,1,505,0)"
       width="61"
       height="96" />
    <use
       x="0"
       y="0"
       xlink:href="#path4542"
       id="use4659"
       transform="matrix(-1,0,0,1,505,0)"
       width="61"
       height="96" />
    <use
       x="0"
       y="0"
       xlink:href="#path4544"
       id="use4661"
       transform="matrix(-1,0,0,1,505,0)"
       width="61"
       height="96" />
  </g>
  <g
     inkscape:groupmode="layer"
     id="layer2"
     style="display:inline"
     transform="translate(-228.5,-156.49999)" />
</svg>
