<svg xmlns="http://www.w3.org/2000/svg" xmlns:xlink="http://www.w3.org/1999/xlink" width="32" height="32" version="1">
  <defs>
    <linearGradient id="d">
      <stop offset="0" stop-color="#74a9cf"/>
      <stop offset="1" stop-color="#d1ecff"/>
    </linearGradient>
    <linearGradient id="a">
      <stop offset="0" stop-color="#3e8f25"/>
      <stop offset="1" stop-color="#cfefa1"/>
    </linearGradient>
    <linearGradient id="b">
      <stop offset="0" stop-color="#90b1ed"/>
      <stop offset=".79" stop-color="#e1f9ff"/>
      <stop offset="1" stop-color="#fff"/>
    </linearGradient>
    <linearGradient id="c">
      <stop offset="0" stop-color="#4976a7"/>
      <stop offset="1" stop-color="#81b1d3"/>
    </linearGradient>
    <linearGradient gradientTransform="matrix(1.33333 0 0 1.00885 2.033 -24.717)" gradientUnits="userSpaceOnUse" y2="12.5" x2="8" y1="12" x1="11" id="j" xlink:href="#a"/>
    <linearGradient xlink:href="#b" id="h" gradientUnits="userSpaceOnUse" gradientTransform="matrix(1 -.18452 0 .95952 2 3.405)" x1="27" y1="30.808" x2="14.5" y2="8.404"/>
    <linearGradient xlink:href="#c" id="g" gradientUnits="userSpaceOnUse" gradientTransform="matrix(1 -.18452 0 .95952 2 3.405)" x1="27" y1="30.808" x2="14.5" y2="8.404"/>
    <linearGradient xlink:href="#c" id="e" x1="22" y1="30" x2="8" y2="2" gradientUnits="userSpaceOnUse"/>
    <linearGradient xlink:href="#c" id="f" x1="22" y1="30" x2="8" y2="2" gradientUnits="userSpaceOnUse"/>
    <linearGradient xlink:href="#d" id="i" gradientUnits="userSpaceOnUse" x1="2" y1="30" x2="8.5" y2="6.5"/>
  </defs>
  <path d="M5.964 4.593L28.036 1.96C29.124 1.759 30 2.453 30 3.516v20.63c0 1.063-.876 2.08-1.964 2.281L5.964 30.5C4.876 30.7 4 30.007 4 28.943V6.874c0-1.063.876-2.08 1.964-2.281z" style="marker:none" fill="none" stroke="url(#e)" stroke-width="2" stroke-linecap="round" stroke-linejoin="round" overflow="visible"/>
  <g fill="none" stroke="url(#f)" stroke-width="2" stroke-linecap="round" stroke-linejoin="round">
    <path d="M5.964 4.593L28.036 1.96l-1.997-.65L3.967 3.945l1.997.649z" style="marker:none"/>
    <path d="M28.036 1.96c.329-.061.638-.04.91.048L26.95 1.36a1.85 1.85 0 0 0-.91-.048l1.997.649zM5.054 30.451C4.426 30.247 4 29.685 4 28.943l-1.997-.649c0 .742.426 1.304 1.054 1.508l1.997.65z" style="marker:none"/>
    <path d="M4 28.943V6.874l-1.997-.648v22.068l1.997.65zM4 6.874c0-1.063.876-2.08 1.964-2.281l-1.997-.649c-1.088.2-1.964 1.218-1.964 2.282L4 6.874z" style="marker:none"/>
  </g>
  <path d="M5.964 30.5a1.85 1.85 0 0 1-.91-.049l-1.997-.649c.271.089.581.11.91.05l1.997.648z" style="marker:none" fill="url(#g)" fill-rule="evenodd"/>
  <path style="marker:none" d="M5.964 4.593L28.036 1.96C29.124 1.759 30 2.453 30 3.516v20.63c0 1.063-.876 2.08-1.964 2.281L5.964 30.5C4.876 30.7 4 30.007 4 28.943V6.874c0-1.063.876-2.08 1.964-2.281z" fill="url(#h)" fill-rule="evenodd" overflow="visible"/>
  <path style="marker:none" d="M5.964 4.593L28.036 1.96l-1.997-.65L3.967 3.945l1.997.649zM28.036 1.96c.329-.061.638-.04.91.048L26.95 1.36a1.85 1.85 0 0 0-.91-.048l1.997.649zM5.054 30.45C4.426 30.247 4 29.685 4 28.943l-1.997-.649c0 .742.426 1.304 1.054 1.508l1.997.65zM4 28.943V6.874l-1.997-.648v22.068l1.997.65zM4 6.874c0-1.063.876-2.08 1.964-2.281l-1.997-.649c-1.088.2-1.964 1.218-1.964 2.282L4 6.874z" fill="url(#i)" fill-rule="evenodd"/>
  <path d="M12 25V9" fill="none" stroke="#001c3c" stroke-width="2" stroke-linecap="round" stroke-opacity=".275"/>
  <path d="M12.5 25V9" fill="none" stroke="#fff" stroke-linecap="round"/>
  <rect ry="1.513" style="marker:none" width="4" height="6.558" x="12.2" y="-15.637" rx="1.5" transform="matrix(0 1 -.99123 .13216 0 0)" fill="#4c9635" fill-rule="evenodd" overflow="visible"/>
  <rect ry="1.513" rx="1.5" y="-16.646" x="12.7" height="6.558" width="4" style="marker:none" transform="matrix(0 1 -.99123 .13216 0 0)" fill="url(#j)" fill-rule="evenodd" overflow="visible"/>
  <path style="marker:none" d="M20.284 10.226l2.5 3 2.5-6.5" opacity=".381" fill="none" stroke="#000" stroke-width="1.5" stroke-linejoin="round" overflow="visible"/>
  <path style="marker:none" d="M25.772 20.242a2.974 2.974 0 0 1-5.945 0 2.974 2.974 0 0 1 5.945 0zm-4.954-1.982l3.963 3.964" opacity=".381" fill="none" stroke="#000" stroke-linejoin="round" overflow="visible"/>
</svg>
