<svg xmlns="http://www.w3.org/2000/svg" xmlns:xlink="http://www.w3.org/1999/xlink" width="32" height="32" version="1">
  <defs>
    <linearGradient id="d">
      <stop offset="0" stop-color="#8c6314"/>
      <stop offset="1" stop-color="#bf9b1d"/>
    </linearGradient>
    <linearGradient id="a">
      <stop offset="0" stop-color="#d4b958"/>
      <stop offset=".1" stop-color="#d4be58"/>
      <stop offset=".5" stop-color="#fcf06f"/>
      <stop offset=".8" stop-color="#ffffcd"/>
      <stop offset=".9" stop-color="#fff"/>
      <stop offset="1" stop-color="#fff"/>
    </linearGradient>
    <linearGradient id="c">
      <stop offset="0" stop-color="#a07c00"/>
      <stop offset=".558" stop-color="#dcc500"/>
      <stop offset=".874" stop-color="#ffffa5"/>
      <stop offset="1" stop-color="#fff"/>
    </linearGradient>
    <linearGradient id="b">
      <stop offset="0" stop-color="#b48c00"/>
      <stop offset="1" stop-color="#fff999"/>
    </linearGradient>
    <linearGradient xlink:href="#a" id="h" gradientUnits="userSpaceOnUse" spreadMethod="reflect" x1="63" y1="28" x2="57" y2="22.5" gradientTransform="translate(-36 -10)"/>
    <linearGradient xlink:href="#b" id="f" x1="14" y1="14.5" x2="2" y2="18" gradientUnits="userSpaceOnUse"/>
    <linearGradient xlink:href="#c" id="e" x1="26.5" y1="6.5" x2="22" y2="13" gradientUnits="userSpaceOnUse" spreadMethod="reflect"/>
    <linearGradient xlink:href="#d" id="g" x1="26.5" y1="12" x2="26.5" y2="21.5" gradientUnits="userSpaceOnUse"/>
  </defs>
  <path d="M24 50c-2.735 0-5 2.265-5 5v9c0 2.735 2.265 5 5 5h3c2.735 0 5-2.265 5-5v-9c0-2.735-2.265-5-5-5h-3zm0 4h3c.589 0 1 .411 1 1v9c0 .589-.411 1-1 1h-3c-.589 0-1-.411-1-1v-9c0-.589.411-1 1-1z" style="marker:none" fill-rule="evenodd" overflow="visible"/>
  <path style="marker:none" fill-rule="evenodd" overflow="visible" d="M4 57h16v5H4z"/>
  <rect rx="1.5" y="59.5" x="10" height="7.5" width="3" style="marker:none" fill-rule="evenodd" overflow="visible"/>
  <rect style="marker:none" width="3" height="7.5" x="5" y="59.5" rx="1.5" fill-rule="evenodd" overflow="visible"/>
  <path style="marker:none" d="M25.469 6.281c-.468-.022-.956.05-1.469.188l-3 .812c-2.735.733-5 3.577-5 6.313v2.031l2 1.125v-2.031c0-2.736 2.265-5.58 5-6.313l3-.812c.513-.138 1-.21 1.469-.188.627.03 1.22.187 1.718.469l-2.03-1.125a3.731 3.731 0 0 0-1.688-.469zM18 16.75l-15 4-2.002-1.133 15-4L18 16.75zm-15 4v5L.998 24.617v-5L3 20.75zm0 5l1-.281-2.002-1.133-1 .281L3 25.75zm1-.281v3.468l-2.002-1.132v-3.469L4 25.47zm0 3.468c0 .492.219.872.561 1.066L2.56 28.871c-.342-.194-.56-.574-.56-1.066L4 28.938zm.561 1.066c.257.146.583.186.939.09l-2.002-1.132c-.356.096-.682.055-.939-.09l2.002 1.132zM9 24.156v3.438L6.998 26.46v-3.437L9 24.156zm0 3.438c0 .492.219.872.561 1.066L7.56 27.527c-.342-.194-.56-.574-.56-1.066L9 27.594zm.561 1.066c.257.145.583.185.939.09l-2.002-1.133c-.356.096-.682.055-.939-.09l2.002 1.133zM16 20.625v1.969c0 1.539.73 2.744 1.844 3.375l1.593.875.407.25c.866.49 1.96.633 3.156.312l-2-1.125c-.748.2-1.453.196-2.094.063-.574-.665-.906-1.567-.906-2.625V21.75l-2-1.125zm15-9.375c0-1.535-.717-2.737-1.828-3.366L27.17 6.752c1.111.628 1.828 1.83 1.828 3.365L31 11.25zm-6.594-.813a1.06 1.06 0 0 0-.406.032l.969.562c.007.052.031.099.031.156v9c0 .59-.411 1.124-1 1.282l-2.781.75L20 21.53c0 .331.125.564.344.688l1.843 1.031.157.094c.17.096.398.131.656.062l3-.812c.589-.158 1-.693 1-1.282v-9c0-.321-.137-.539-.344-.656l-2-1.156c-.077-.044-.151-.05-.25-.063zm3.063-3.03c-.468-.023-.956.05-1.469.187l-3 .812c-2.735.733-5 3.577-5 6.313v2.031l-15 4v5l1-.281v3.468c0 .86.669 1.38 1.5 1.157.831-.223 1.5-1.109 1.5-1.969v-3.438l2-.53v3.437c0 .86.669 1.379 1.5 1.156.831-.223 1.5-1.108 1.5-1.969v-3.437l6-1.594v1.969c0 2.735 2.265 4.42 5 3.687l3-.812c2.735-.733 5-3.609 5-6.344v-9c0-2.223-1.503-3.748-3.531-3.844zm-1.063 4.155c.364.046.594.31.594.75v9c0 .59-.411 1.124-1 1.282l-3 .812c-.589.158-1-.161-1-.75v-9c0-.588.411-1.092 1-1.25l3-.812a1.06 1.06 0 0 1 .406-.031zm-.937-5.28c-.468-.023-.956.05-1.469.187l-3 .812c-2.735.733-5 3.577-5 6.313v2.031l2 1.125v-2.031c0-2.736 2.265-5.58 5-6.313l3-.812c.513-.138 1-.21 1.469-.188.627.03 1.22.187 1.718.469l-2.03-1.125a3.731 3.731 0 0 0-1.688-.469zM18 16.75l-15 4-2.002-1.133 15-4L18 16.75zm-15 4v5L.998 24.617v-5L3 20.75zm0 5l1-.281-2.002-1.133-1 .281L3 25.75zm1-.281v3.468l-2.002-1.132v-3.469L4 25.47zm0 3.468c0 .492.219.872.561 1.066L2.56 28.871c-.342-.194-.56-.574-.56-1.066L4 28.938zm.561 1.066c.257.146.583.186.939.09l-2.002-1.132c-.356.096-.682.055-.939-.09l2.002 1.132zM9 24.156v3.438L6.998 26.46v-3.437L9 24.156zm0 3.438c0 .492.219.872.561 1.066L7.56 27.527c-.342-.194-.56-.574-.56-1.066L9 27.594zm.561 1.066c.257.145.583.185.939.09l-2.002-1.133c-.356.096-.682.055-.939-.09l2.002 1.133zM16 20.625v1.969c0 1.539.73 2.744 1.844 3.375l1.593.875.407.25c.866.49 1.96.633 3.156.312l-2-1.125c-.748.2-1.453.196-2.094.063-.574-.665-.906-1.567-.906-2.625V21.75l-2-1.125zm15-9.375c0-1.535-.717-2.737-1.828-3.366L27.17 6.752c1.111.628 1.828 1.83 1.828 3.365L31 11.25zm-6.594-.813a1.06 1.06 0 0 0-.406.032l.969.562c.007.052.031.099.031.156v9c0 .59-.411 1.124-1 1.282l-2.781.75L20 21.53c0 .331.125.564.344.688l1.843 1.031.157.094c.17.096.398.131.656.062l3-.812c.589-.158 1-.693 1-1.282v-9c0-.321-.137-.539-.344-.656l-2-1.156c-.077-.044-.151-.05-.25-.063zm3.063-3.03c-.468-.023-.956.05-1.469.187l-3 .812c-2.735.733-5 3.577-5 6.313v2.031l-15 4v5l1-.281v3.468c0 .86.669 1.38 1.5 1.157.831-.223 1.5-1.109 1.5-1.969v-3.438l2-.53v3.437c0 .86.669 1.379 1.5 1.156.831-.223 1.5-1.108 1.5-1.969v-3.437l6-1.594v1.969c0 2.735 2.265 4.42 5 3.687l3-.812c2.735-.733 5-3.609 5-6.344v-9c0-2.223-1.503-3.748-3.531-3.844zm-1.063 4.155c.364.046.594.31.594.75v9c0 .59-.411 1.124-1 1.282l-3 .812c-.589.158-1-.161-1-.75v-9c0-.588.411-1.092 1-1.25l3-.812a1.06 1.06 0 0 1 .406-.031z" fill="none" stroke-width="2" stroke-linecap="square" stroke-linejoin="round" stroke="#ab851d"/>
  <path style="marker:none" d="M25.469 6.281c-.468-.022-.956.05-1.469.188l-3 .812c-2.735.733-5 3.577-5 6.313v2.031l2 1.125v-2.031c0-2.736 2.265-5.58 5-6.313l3-.812c.513-.138 1-.21 1.469-.188.627.03 1.22.187 1.718.469l-2.03-1.125a3.731 3.731 0 0 0-1.688-.469z" fill="url(#e)" fill-rule="evenodd"/>
  <path style="marker:none" d="M18 16.75l-15 4-2.002-1.133 15-4L18 16.75z" fill="url(#f)" fill-rule="evenodd"/>
  <path style="marker:none" d="M3 20.75v5L.998 24.617v-5L3 20.75z" fill="#a07100" fill-rule="evenodd"/>
  <path style="marker:none" d="M3 25.75l1-.281-2.002-1.133-1 .281L3 25.75z" fill="#a07100" fill-rule="evenodd"/>
  <path style="marker:none" d="M4 25.469v3.468l-2.002-1.132v-3.469L4 25.47z" fill="#a07100" fill-rule="evenodd"/>
  <path style="marker:none" d="M4 28.938c0 .491.219.871.561 1.065L2.56 28.871c-.342-.194-.56-.574-.56-1.066L4 28.938z" fill="#a07100" fill-rule="evenodd"/>
  <path style="marker:none" d="M4.561 30.003c.257.146.583.186.939.09l-2.002-1.132c-.356.096-.682.055-.939-.09l2.002 1.132zM9 24.156v3.438L6.998 26.46v-3.437L9 24.156z" fill="#a07100" fill-rule="evenodd"/>
  <path style="marker:none" d="M9 27.594c0 .492.219.872.561 1.066L7.56 27.527c-.342-.194-.56-.574-.56-1.066L9 27.594z" fill="#a07100" fill-rule="evenodd"/>
  <path style="marker:none" d="M9.561 28.66c.257.145.583.185.939.09l-2.002-1.133c-.356.096-.682.055-.939-.09l2.002 1.133z" fill="#a07100" fill-rule="evenodd"/>
  <path style="marker:none" d="M16 20.625v1.969c0 1.539.73 2.744 1.844 3.375l1.593.875.407.25c.866.49 1.96.633 3.156.312l-2-1.125c-.748.2-1.453.196-2.094.063-.574-.665-.906-1.567-.906-2.625V21.75l-2-1.125z" fill="#8c5200" fill-rule="evenodd"/>
  <path style="marker:none" d="M31 11.25c0-1.535-.717-2.737-1.828-3.366L27.17 6.752c1.111.628 1.828 1.83 1.828 3.365L31 11.25z" fill="#643a00" fill-rule="evenodd"/>
  <path style="marker:none" d="M24.406 10.438a1.06 1.06 0 0 0-.406.03l.969.563c.007.052.031.099.031.156v9c0 .59-.411 1.124-1 1.282l-2.781.75L20 21.53c0 .331.125.564.344.688l1.843 1.031.157.094c.17.096.398.131.656.062l3-.812c.589-.158 1-.693 1-1.282v-9c0-.321-.137-.539-.344-.656l-2-1.156c-.077-.044-.151-.05-.25-.063z" fill="url(#g)" fill-rule="evenodd"/>
  <path d="M9 24.156v3.438L6.998 26.46v-3.437L9 24.156z" style="marker:none" fill="#a07100" fill-rule="evenodd"/>
  <path d="M25.469 6.281c-.468-.022-.956.05-1.469.188l-3 .812c-2.735.733-5 3.577-5 6.313v2.031l2 1.125v-2.031c0-2.736 2.265-5.58 5-6.313l3-.812c.513-.138 1-.21 1.469-.188.627.03 1.22.187 1.718.469l-2.03-1.125a3.731 3.731 0 0 0-1.688-.469z" style="marker:none" fill="none"/>
  <path d="M18 16.75l-15 4-2.002-1.133 15-4L18 16.75z" style="marker:none" fill="none"/>
  <path d="M3 20.75v5L.998 24.617v-5L3 20.75z" style="marker:none" fill="#a07100" fill-rule="evenodd"/>
  <path d="M3 25.75l1-.281-2.002-1.133-1 .281L3 25.75z" style="marker:none" fill="#a07100" fill-rule="evenodd"/>
  <path d="M4 25.469v3.468l-2.002-1.132v-3.469L4 25.47z" style="marker:none" fill="#a07100" fill-rule="evenodd"/>
  <path d="M4 28.938c0 .491.219.871.561 1.065L2.56 28.871c-.342-.194-.56-.574-.56-1.066L4 28.938z" style="marker:none" fill="#a07100" fill-rule="evenodd"/>
  <path d="M4.561 30.003c.257.146.583.186.939.09l-2.002-1.132c-.356.096-.682.055-.939-.09l2.002 1.132zM9 27.594c0 .492.219.872.561 1.066L7.56 27.527c-.342-.194-.56-.574-.56-1.066L9 27.594z" style="marker:none" fill="#a07100" fill-rule="evenodd"/>
  <path d="M9.561 28.66c.257.145.583.185.939.09l-2.002-1.133c-.356.096-.682.055-.939-.09l2.002 1.133z" style="marker:none" fill="#a07100" fill-rule="evenodd"/>
  <path d="M16 20.625v1.969c0 1.539.73 2.744 1.844 3.375l1.593.875.407.25c.866.49 1.96.633 3.156.312l-2-1.125c-.748.2-1.453.196-2.094.063-.574-.665-.906-1.567-.906-2.625V21.75l-2-1.125zM31 11.25c0-1.535-.717-2.737-1.828-3.366L27.17 6.752c1.111.628 1.828 1.83 1.828 3.365L31 11.25zM24.406 10.438a1.06 1.06 0 0 0-.406.03l.969.563c.007.052.031.099.031.156v9c0 .59-.411 1.124-1 1.282l-2.781.75L20 21.53c0 .331.125.564.344.688l1.843 1.031.157.094c.17.096.398.131.656.062l3-.812c.589-.158 1-.693 1-1.282v-9c0-.321-.137-.539-.344-.656l-2-1.156c-.077-.044-.151-.05-.25-.063z" style="marker:none" fill="none"/>
  <path d="M27.469 7.406c-.468-.022-.956.05-1.469.188l-3 .812c-2.735.733-5 3.577-5 6.313v2.031l-15 4v5l1-.281v3.468c0 .86.669 1.38 1.5 1.157.831-.223 1.5-1.109 1.5-1.969v-3.438l2-.53v3.437c0 .86.669 1.379 1.5 1.156.831-.223 1.5-1.108 1.5-1.969v-3.437l6-1.594v1.969c0 2.735 2.265 4.42 5 3.687l3-.812c2.735-.733 5-3.609 5-6.344v-9c0-2.223-1.503-3.748-3.531-3.844zm-1.063 4.157c.364.045.594.308.594.75v9c0 .588-.411 1.123-1 1.28l-3 .813c-.589.158-1-.161-1-.75v-9c0-.588.411-1.092 1-1.25l3-.812a1.06 1.06 0 0 1 .406-.031z" style="marker:none" fill="none" overflow="visible"/>
  <path style="marker:none" d="M27.469 7.406c-.468-.022-.956.05-1.469.188l-3 .812c-2.735.733-5 3.577-5 6.313v2.031l-15 4v5l1-.281v3.468c0 .86.669 1.38 1.5 1.157.831-.223 1.5-1.109 1.5-1.969v-3.438l2-.53v3.437c0 .86.669 1.379 1.5 1.156.831-.223 1.5-1.108 1.5-1.969v-3.437l6-1.594v1.969c0 2.735 2.265 4.42 5 3.687l3-.812c2.735-.733 5-3.609 5-6.344v-9c0-2.223-1.503-3.748-3.531-3.844zm-1.063 4.157c.364.045.594.308.594.75v9c0 .588-.411 1.123-1 1.28l-3 .813c-.589.158-1-.161-1-.75v-9c0-.588.411-1.092 1-1.25l3-.812a1.06 1.06 0 0 1 .406-.031z" fill="url(#h)" fill-rule="evenodd" overflow="visible"/>
</svg>
