<svg xmlns="http://www.w3.org/2000/svg" xmlns:xlink="http://www.w3.org/1999/xlink" width="16" height="16" version="1">
  <defs>
    <linearGradient id="a">
      <stop offset="0" stop-color="#920e0e"/>
      <stop offset="1" stop-color="#ee5642"/>
    </linearGradient>
    <linearGradient xlink:href="#a" id="o" x1="13.6" y1="12" x2="13.6" y2="4" gradientUnits="userSpaceOnUse"/>
    <linearGradient id="f">
      <stop offset="0" stop-color="#7d9aaf"/>
      <stop offset=".5" stop-color="#506778"/>
      <stop offset="1" stop-color="#b1aea3"/>
    </linearGradient>
    <linearGradient id="e">
      <stop offset="0" stop-color="#e9e47f"/>
      <stop offset="1" stop-color="#bf9631"/>
    </linearGradient>
    <linearGradient id="g">
      <stop offset="0" stop-color="#fff"/>
      <stop offset=".5" stop-color="#b6cbda"/>
      <stop offset="1" stop-color="#a3daff" stop-opacity="0"/>
    </linearGradient>
    <linearGradient id="d">
      <stop offset="0" stop-color="#d8c525"/>
      <stop offset="1" stop-color="#fff"/>
    </linearGradient>
    <linearGradient id="c">
      <stop offset="0" stop-color="#ab8b1d"/>
      <stop offset="1" stop-color="#bca120"/>
    </linearGradient>
    <linearGradient id="b">
      <stop offset="0" stop-color="#b78611"/>
      <stop offset=".45" stop-color="#e6da6e"/>
      <stop offset="1" stop-color="#ffffe1"/>
    </linearGradient>
    <linearGradient xlink:href="#b" id="j" x1="27" y1="23" x2="11" y2="19.1" gradientUnits="userSpaceOnUse" spreadMethod="reflect" gradientTransform="matrix(.5 0 0 .5 -1.5 .95)"/>
    <linearGradient xlink:href="#c" id="h" x1="18.5" y1="30.5" x2="18.5" y2="10.5" gradientUnits="userSpaceOnUse" gradientTransform="matrix(.5 0 0 .5 -1.5 .95)"/>
    <linearGradient xlink:href="#d" id="i" gradientUnits="userSpaceOnUse" x1="14.5" y1="12" x2="15" y2="15" gradientTransform="matrix(.5 0 0 .5 -1.5 .95)"/>
    <linearGradient xlink:href="#e" id="k" x1="4" y1="15.1" x2="8" y2="29.1" gradientUnits="userSpaceOnUse" gradientTransform="matrix(.5 0 0 .5 -1.5 .95)"/>
    <linearGradient xlink:href="#f" id="l" x1="12" y1=".5" x2="15" y2="15" gradientUnits="userSpaceOnUse" gradientTransform="matrix(.5 -.07436 0 .5 -1.5 1.315)"/>
    <linearGradient xlink:href="#g" id="n" gradientUnits="userSpaceOnUse" gradientTransform="matrix(.5 -.07436 0 .5 -1.75 1.386)" x1="22" y1="6" x2="17.5" y2="7.5"/>
    <linearGradient xlink:href="#g" id="m" gradientUnits="userSpaceOnUse" gradientTransform="matrix(.5 -.07436 0 .5 -2 1.39)" x1="11" y1="3" x2="16.5" y2="6.5"/>
  </defs>
  <path d="M1 8.45v5.25l1.5 1.25c2.5 0 6.457-.82 8.5-2v-5.5L9.5 6.7C7 6.7 3.043 7.27 1 8.45" fill="none" stroke="url(#h)" stroke-width="2"/>
  <path d="M10.25 10.7L11 7.45 9.5 6.7C7 6.7 3.043 7.27 1 8.45v3.5c2.043-1.18 6.25-1.25 9.25-1.25z" fill="url(#i)" fill-rule="evenodd"/>
  <path d="M3 9.45v5.5c2.5 0 5.957-.82 8-2v-5.5c-2.525 1.458-5 2-8 2z" fill="url(#j)" fill-rule="evenodd"/>
  <path d="M3 9.45v5.5L1 13.7V8.45l2 1z" fill="url(#k)" fill-rule="evenodd"/>
  <path style="marker:none" d="M6 .2C3.792.528 2 2.587 2 4.795v4c.25.463 1.75.206 2-.33v-4c0-1.105.896-2.1 2-2.265 1.104-.164 2 .632 2 1.736v3.5c.25.463 1.75.206 2-.33v-3.5C10 1.396 8.208-.129 6 .2z" fill="url(#l)" fill-rule="evenodd" overflow="visible"/>
  <path style="marker:none" d="M7.75.69c-2-1.203-5.473.993-5.5 4.068v3.86c.335.08.914-.084 1.25-.187v-3.86C3.51 1.997 5.5.525 7.75.69z" opacity=".8" fill="url(#m)" fill-rule="evenodd" overflow="visible"/>
  <path d="M6 1.983C7.25 1.797 8.25 2.4 8.25 3.9v3.36l1-.15V4c0-2.25-2.282-2.72-3.25-2.017z" style="marker:none" opacity=".8" fill="url(#n)" fill-rule="evenodd" overflow="visible"/>
  <path style="marker:none" d="M16 8a4 4 0 1 1-8 0 4 4 0 1 1 8 0z" transform="matrix(1.25 0 0 1.25 -4 1)" fill="url(#o)" fill-rule="evenodd" overflow="visible"/>
  <path style="marker:none" d="M11 8v4M11 13v2" fill="none" stroke="#fff" stroke-width="2" stroke-linejoin="round" overflow="visible"/>
</svg>
