<svg xmlns="http://www.w3.org/2000/svg" xmlns:xlink="http://www.w3.org/1999/xlink" width="24" height="24" version="1">
  <defs>
    <linearGradient id="a">
      <stop offset="0" stop-color="#960000"/>
      <stop offset=".5" stop-color="#c24b42"/>
      <stop offset="1" stop-color="#ef5252"/>
    </linearGradient>
    <linearGradient id="b">
      <stop offset="0" stop-color="#fff"/>
      <stop offset="1" stop-color="#fff" stop-opacity="0"/>
    </linearGradient>
    <linearGradient id="c">
      <stop offset="0" stop-color="#fff"/>
      <stop offset=".5" stop-color="#ffeecb" stop-opacity=".498"/>
      <stop offset="1" stop-color="#fff" stop-opacity="0"/>
    </linearGradient>
    <linearGradient xlink:href="#a" id="d" x1="14.062" y1="21.095" x2="8.599" y2="3" gradientUnits="userSpaceOnUse"/>
    <linearGradient xlink:href="#b" id="f" x1="18.465" y1="16.499" x2="12.304" y2="16.02" gradientUnits="userSpaceOnUse"/>
    <linearGradient xlink:href="#c" id="e" gradientUnits="userSpaceOnUse" x1="7" y1="5" x2="8" y2="14.5"/>
  </defs>
  <g fill-rule="evenodd">
    <path d="M11.5 10C12 4 19 2 22 6.5 27 14 11.5 23 11.5 23S-4 14 1 6.5C4 2 11 4 11.5 10z" fill="url(#d)"/>
    <path d="M5.5 4.781A4.454 4.454 0 0 0 4.062 5c-.93.299-1.776.915-2.437 1.906C.513 8.575.531 10.228 1.219 11.97c.687 1.74 2.106 3.511 3.687 5.062 2.905 2.849 6.049 4.737 6.594 5.063.545-.326 3.69-2.214 6.594-5.063 1.581-1.55 3-3.322 3.687-5.062.688-1.74.706-3.394-.406-5.063-1.322-1.983-3.436-2.474-5.344-1.875-1.907.6-3.554 2.313-3.781 5.032a.76.76 0 0 1-.75.75.76.76 0 0 1-.75-.75C10.523 7.344 8.876 5.63 6.969 5.03a5.219 5.219 0 0 0-1.469-.25z" fill="url(#e)"/>
    <path style="marker:none" d="M15.396 15a2.146 6.182 0 1 1-4.292 0 2.146 6.182 0 1 1 4.292 0z" transform="matrix(.90412 .9027 -.9027 .90412 17.199 -10.586)" fill="url(#f)" overflow="visible"/>
  </g>
</svg>
