<svg xmlns="http://www.w3.org/2000/svg" xmlns:xlink="http://www.w3.org/1999/xlink" width="32" height="32" version="1">
  <defs>
    <linearGradient id="b">
      <stop offset="0"/>
      <stop offset="1" stop-opacity="0"/>
    </linearGradient>
    <linearGradient id="a">
      <stop offset="0" stop-color="#e4cd5f"/>
      <stop offset="1" stop-color="#fffdcd"/>
    </linearGradient>
    <linearGradient id="d">
      <stop offset="0" stop-color="#05FF3A"/>
      <stop offset=".5" stop-color="#03BD32"/>
      <stop offset="1" stop-color="#007828" stop-opacity="0"/>
    </linearGradient>
    <linearGradient id="c">
      <stop offset="0" stop-color="#cfa821"/>
      <stop offset=".552" stop-color="#ece990"/>
      <stop offset="1" stop-color="#fff"/>
    </linearGradient>
    <linearGradient xlink:href="#a" id="e" x1="3.844" y1="11.177" x2="9.511" y2="9.511" gradientUnits="userSpaceOnUse" gradientTransform="rotate(-90 12.5 13.766) scale(1.5)"/>
    <linearGradient xlink:href="#b" id="g" gradientUnits="userSpaceOnUse" x1="7.75" y1="4.875" x2="17.25" y2="4.875"/>
    <linearGradient xlink:href="#c" id="f" gradientUnits="userSpaceOnUse" gradientTransform="rotate(-90 12.5 13.766) scale(1.5)" x1="-3.02" y1="14.177" x2="6.352" y2="10.177"/>
    <linearGradient xlink:href="#d" id="i" gradientUnits="userSpaceOnUse" x1="9" y1="3.194" x2="14" y2="10.131"/>
    <linearGradient xlink:href="#d" id="h" gradientUnits="userSpaceOnUse" x1="11" y1="2" x2="14" y2="9"/>
  </defs>
  <path d="M3 11v19l23-1 2.969-11.292-3-.177L26 13l-16.5-.737-1-1L3 11z" fill="none" stroke="#c2a256" stroke-width="2" stroke-linejoin="round" transform="translate(0 1.73) skewY(-10)"/>
  <path d="M26 30V13l-16.5-.737-1-1L3 11v19h23z" fill="url(#e)" fill-rule="evenodd" transform="translate(0 1.73) skewY(-10)"/>
  <path d="M3 31.201l23-4.055v-14l-15.5 2.321-1 1.176-5 .882L3 31.201z" opacity=".25" fill="#783800" fill-rule="evenodd"/>
  <path d="M3 30l23-1 3-11.324-17-.5-1 1H6L3 30z" fill="url(#f)" fill-rule="evenodd" transform="translate(0 1.73) skewY(-10)"/>
  <path d="M3 29.5l22.5-1 3-10.324" opacity=".518" fill="none" stroke="#fff" stroke-linejoin="round" transform="translate(0 1.73) skewY(-10)"/>
  <path style="marker:none" d="M14.969-.029c-1.105.114-1.986 1.1-1.969 2.204v4.687l-2.094-1.91c-.48-.554-1.26-.756-2.006-.519-.746.237-1.329.871-1.5 1.632-.172.762.097 1.517.694 1.945l5.5 5.02L15 14.343l1.406-1.56 5.5-5.982c.597-.533.866-1.335.694-2.067a1.78 1.78 0 0 0-1.5-1.37c-.747-.106-1.526.232-2.006.87L17 6.514V1.825a1.833 1.833 0 0 0-.586-1.394 1.848 1.848 0 0 0-1.445-.46z" fill="#007828" fill-rule="evenodd" overflow="visible"/>
  <g transform="translate(2.5 1.094) skewY(-5)" stroke="url(#h)" stroke-width="2">
    <path style="marker:none" d="M12.281 1a1 1 0 0 0-.781 1v7.063L7.719 5.28A1.016 1.016 0 1 0 6.28 6.72l5.5 5.5.719.687.719-.687 5.5-5.5A1.016 1.016 0 1 0 17.28 5.28L13.5 9.063V2a1 1 0 0 0-1.219-1z" fill="url(#i)" fill-rule="evenodd" overflow="visible" stroke="none"/>
  </g>
</svg>
