<svg xmlns="http://www.w3.org/2000/svg" xmlns:xlink="http://www.w3.org/1999/xlink" width="16" height="16" version="1">
  <defs>
    <linearGradient id="a">
      <stop offset="0" stop-color="#8f2525"/>
      <stop offset="1" stop-color="#cc3838"/>
    </linearGradient>
    <linearGradient xlink:href="#a" id="k" x1="16" y1="21" x2="16" y2="8" gradientUnits="userSpaceOnUse" gradientTransform="translate(-.019 -.167) scale(.66666)"/>
    <linearGradient id="f">
      <stop offset="0" stop-color="#ff634e" stop-opacity="0"/>
      <stop offset=".5" stop-color="#ff8372"/>
      <stop offset="1" stop-color="#ffe5e1"/>
    </linearGradient>
    <linearGradient id="e">
      <stop offset="0" stop-color="#0065a0"/>
      <stop offset="1" stop-color="#69c6ff"/>
    </linearGradient>
    <linearGradient id="d">
      <stop offset="0" stop-color="#fff"/>
      <stop offset="1" stop-color="#cdd9ff"/>
    </linearGradient>
    <linearGradient id="c">
      <stop offset="0" stop-color="#6293ca"/>
      <stop offset="1" stop-color="#a8d1e9"/>
    </linearGradient>
    <linearGradient id="b">
      <stop offset="0" stop-color="#fff"/>
      <stop offset=".5" stop-color="#e1f8ff"/>
      <stop offset="1" stop-color="#a2c8ee"/>
    </linearGradient>
    <linearGradient xlink:href="#b" id="g" x1="6.25" y1="6.75" x2="9.25" y2="14.25" gradientUnits="userSpaceOnUse" gradientTransform="matrix(1.33333 0 0 1.33333 -4.333 -5)"/>
    <linearGradient xlink:href="#c" id="h" x1="13.5" y1="16" x2="10.182" y2=".963" gradientUnits="userSpaceOnUse" gradientTransform="translate(-3)"/>
    <linearGradient xlink:href="#d" id="j" x1="10.571" y1="5.426" x2="12" y2="14" gradientUnits="userSpaceOnUse" gradientTransform="translate(-3)"/>
    <linearGradient xlink:href="#e" id="i" x1="14.5" y1="4" x2="16" y2="2.5" gradientUnits="userSpaceOnUse" gradientTransform="translate(-6)"/>
    <linearGradient xlink:href="#f" id="m" gradientUnits="userSpaceOnUse" gradientTransform="translate(.314 .833) scale(.66666)" x1="13.15" y1="16.025" x2="5.5" y2="13.5"/>
    <linearGradient xlink:href="#f" id="l" gradientUnits="userSpaceOnUse" gradientTransform="translate(.314 .833) scale(.66666)" x1="15" y1="12" x2="16.5" y2="8.5"/>
  </defs>
  <path d="M9.25 1.25v2.656h.031c1.369.004 2.651.252 3.719.656V3.375l-.438-.438L11 1.375a11.742 11.742 0 0 0-1.75-.125z" fill="#fff" fill-rule="evenodd" opacity=".75"/>
  <path d="M.5 15.5h11V4L8 .5H.5v15z" fill="url(#g)" fill-rule="evenodd" stroke="url(#h)"/>
  <path d="M8 0v4h4" fill="url(#i)" fill-rule="evenodd"/>
  <path d="M10.5 6.5v8H1.453L1.5 1" fill="none" stroke="url(#j)"/>
  <path d="M19.656 1.063C21.104 2.329 22 4.067 22 6c0 3.864-3.584 7-8 7h-2.688l1.594-1.594a2.02 2.02 0 0 0 .469-2.219 2.011 2.011 0 0 0-1.906-1.218 2 2 0 0 0-1.375.625l-5 5L3.656 15l1.438 1.406 5 5c.48.597 1.253.86 2 .688a1.998 1.998 0 0 0 1.5-1.5 1.987 1.987 0 0 0-.688-2L11.312 17H14c5.52 0 10-3.92 10-8.75 0-2.99-1.725-5.61-4.344-7.188z" style="marker:none" fill="none" overflow="visible"/>
  <path style="marker:none" d="M8.314 6.833l5.334 5.334m0-5.334l-5.334 5.334" fill="none" stroke="url(#k)" stroke-width="3" stroke-linecap="square" overflow="visible"/>
  <path id="n" d="M8.314 5.646L7.127 6.833l3.854 4 .02-2.5-2.687-2.687z" fill="url(#l)" fill-rule="evenodd" stroke-width="5" stroke-linecap="square"/>
  <path d="M7.127 12.167l1.187 1.187L10.668 11 9.481 9.813l-2.354 2.354z" id="o" fill="url(#m)" fill-rule="evenodd" stroke-width="5" stroke-linecap="square"/>
  <use xlink:href="#n" transform="matrix(-1 0 0 1 21.962 0)" width="24" height="24"/>
  <use xlink:href="#o" transform="matrix(-1 0 0 1 21.962 0)" width="24" height="24"/>
</svg>
