<svg xmlns="http://www.w3.org/2000/svg" xmlns:xlink="http://www.w3.org/1999/xlink" width="24" height="24" version="1">
  <defs>
    <linearGradient id="e">
      <stop offset="0" stop-color="#005ea0"/>
      <stop offset="1" stop-color="#69c2ff"/>
    </linearGradient>
    <linearGradient id="d">
      <stop offset="0" stop-color="#8f2525"/>
      <stop offset="1" stop-color="#cc3838"/>
    </linearGradient>
    <linearGradient id="f">
      <stop offset="0" stop-color="#ff634e" stop-opacity="0"/>
      <stop offset=".5" stop-color="#ff8372"/>
      <stop offset="1" stop-color="#ffe5e1"/>
    </linearGradient>
    <linearGradient id="c">
      <stop offset="0" stop-color="#fff"/>
      <stop offset="1" stop-color="#cdd9ff"/>
    </linearGradient>
    <linearGradient id="b">
      <stop offset="0" stop-color="#6293ca"/>
      <stop offset="1" stop-color="#a8d1e9"/>
    </linearGradient>
    <linearGradient id="a">
      <stop offset="0" stop-color="#fff"/>
      <stop offset=".5" stop-color="#e1f8ff"/>
      <stop offset="1" stop-color="#a5c8ec"/>
    </linearGradient>
    <linearGradient xlink:href="#a" id="g" x1="6.261" y1="8.349" x2="10.471" y2="21" gradientUnits="userSpaceOnUse" gradientTransform="matrix(1.33333 0 0 1.33333 -4.333 -5)"/>
    <linearGradient xlink:href="#b" id="h" x1="15.615" y1="24" x2="10.182" y2=".963" gradientUnits="userSpaceOnUse" gradientTransform="translate(-3)"/>
    <linearGradient xlink:href="#c" id="j" x1="10.571" y1="5.426" x2="16.581" y2="22.256" gradientUnits="userSpaceOnUse" gradientTransform="translate(-3)"/>
    <linearGradient xlink:href="#d" id="k" x1="16" y1="21" x2="16" y2="8" gradientUnits="userSpaceOnUse" gradientTransform="translate(-1 -1)"/>
    <linearGradient xlink:href="#e" id="i" x1="14" y1="5" x2="15.5" y2="3.5" gradientUnits="userSpaceOnUse"/>
    <linearGradient xlink:href="#f" id="m" gradientUnits="userSpaceOnUse" gradientTransform="translate(-.5 .5)" x1="13.15" y1="16.025" x2="5.5" y2="13.5"/>
    <linearGradient xlink:href="#f" id="l" gradientUnits="userSpaceOnUse" gradientTransform="translate(-.5 .5)" x1="15" y1="12" x2="16.5" y2="8.5"/>
  </defs>
  <path d="M.5 22.5h17V5L13 .5H.5v22z" fill="url(#g)" fill-rule="evenodd" stroke="url(#h)"/>
  <path d="M13 0v5h5" fill="url(#i)" fill-rule="evenodd"/>
  <path d="M16.5 6v15.5H1.453L1.5 1" fill="none" stroke="url(#j)"/>
  <path style="marker:none" d="M11.5 9.5l8 8m0-8l-8 8" fill="none" stroke="url(#k)" stroke-width="5" stroke-linecap="square" overflow="visible"/>
  <path id="n" d="M11.5 6.969L8.969 9.5l6.531 6 .031-4.5L11.5 6.969z" fill="url(#l)" fill-rule="evenodd" stroke-width="5" stroke-linecap="square"/>
  <path d="M8.969 17.5l2.531 2.531 3.531-3.531-2.531-2.531L8.969 17.5z" id="o" fill="url(#m)" fill-rule="evenodd" stroke-width="5" stroke-linecap="square"/>
  <use xlink:href="#n" transform="matrix(-1 0 0 1 31 0)" width="24" height="24"/>
  <use xlink:href="#o" transform="matrix(-1 0 0 1 31 0)" width="24" height="24"/>
</svg>
