<?xml version="1.0" encoding="UTF-8" standalone="no"?>
<!-- Created with Inkscape (http://www.inkscape.org/) -->
<svg
   xmlns:dc="http://purl.org/dc/elements/1.1/"
   xmlns:cc="http://creativecommons.org/ns#"
   xmlns:rdf="http://www.w3.org/1999/02/22-rdf-syntax-ns#"
   xmlns:svg="http://www.w3.org/2000/svg"
   xmlns="http://www.w3.org/2000/svg"
   xmlns:xlink="http://www.w3.org/1999/xlink"
   xmlns:sodipodi="http://sodipodi.sourceforge.net/DTD/sodipodi-0.dtd"
   xmlns:inkscape="http://www.inkscape.org/namespaces/inkscape"
   width="16"
   height="16"
   id="svg2"
   sodipodi:version="0.32"
   inkscape:version="0.46"
   version="1.0"
   sodipodi:docname="Privacy 16.svg"
   inkscape:output_extension="org.inkscape.output.svg.inkscape"
   inkscape:export-filename="F:\Development\Qute\Options\Privacy 16.png"
   inkscape:export-xdpi="90"
   inkscape:export-ydpi="90">
  <sodipodi:namedview
     id="base"
     pagecolor="#ffffff"
     bordercolor="#666666"
     borderopacity="1.0"
     gridtolerance="10000"
     guidetolerance="10"
     objecttolerance="10"
     inkscape:pageopacity="0.0"
     inkscape:pageshadow="2"
     inkscape:zoom="6.2219315"
     inkscape:cx="-42.824597"
     inkscape:cy="8.7642397"
     inkscape:document-units="px"
     inkscape:current-layer="layer1"
     showgrid="true"
     inkscape:window-width="1147"
     inkscape:window-height="947"
     inkscape:window-x="340"
     inkscape:window-y="287">
    <inkscape:grid
       type="xygrid"
       id="grid2383"
       visible="true"
       enabled="true"
       spacingx="0.5px"
       spacingy="0.5px"
       empspacing="4" />
  </sodipodi:namedview>
  <defs
     id="defs4">
    <linearGradient
       id="linearGradient3267">
      <stop
         style="stop-color:#ccaf46;stop-opacity:1"
         offset="0"
         id="stop3269" />
      <stop
         style="stop-color:#ac771a;stop-opacity:1"
         offset="1"
         id="stop3271" />
    </linearGradient>
    <linearGradient
       id="linearGradient7431">
      <stop
         style="stop-color:#af7c19;stop-opacity:1;"
         offset="0"
         id="stop7433" />
      <stop
         style="stop-color:#bf9b1d;stop-opacity:1;"
         offset="1"
         id="stop7435" />
    </linearGradient>
    <linearGradient
       id="linearGradient7391">
      <stop
         style="stop-color:#d4b958;stop-opacity:1;"
         offset="0"
         id="stop7393" />
      <stop
         id="stop3278"
         offset="0.1"
         style="stop-color:#d4be58;stop-opacity:1;" />
      <stop
         id="stop7395"
         offset="0.40000001"
         style="stop-color:#fcf06f;stop-opacity:1;" />
      <stop
         id="stop7397"
         offset="0.69999999"
         style="stop-color:#ffffcd;stop-opacity:1;" />
      <stop
         style="stop-color:#ffffff;stop-opacity:1;"
         offset="0.80000001"
         id="stop3276" />
      <stop
         style="stop-color:#ffffff;stop-opacity:1;"
         offset="1"
         id="stop7401" />
    </linearGradient>
    <linearGradient
       id="linearGradient7379">
      <stop
         style="stop-color:#a07c00;stop-opacity:1;"
         offset="0"
         id="stop7381" />
      <stop
         id="stop7383"
         offset="0.55767745"
         style="stop-color:#dcc500;stop-opacity:1;" />
      <stop
         id="stop7385"
         offset="0.87422246"
         style="stop-color:#ffffa5;stop-opacity:1" />
      <stop
         style="stop-color:#ffffff;stop-opacity:1;"
         offset="1"
         id="stop7387" />
    </linearGradient>
    <linearGradient
       id="linearGradient7373">
      <stop
         style="stop-color:#b48c00;stop-opacity:1"
         offset="0"
         id="stop7375" />
      <stop
         style="stop-color:#fff999;stop-opacity:1"
         offset="1"
         id="stop7377" />
    </linearGradient>
    <linearGradient
       inkscape:collect="always"
       xlink:href="#linearGradient7391"
       id="linearGradient7119"
       gradientUnits="userSpaceOnUse"
       spreadMethod="reflect"
       x1="63"
       y1="28"
       x2="57"
       y2="22.5"
       gradientTransform="translate(-16,-10)" />
    <linearGradient
       inkscape:collect="always"
       xlink:href="#linearGradient7373"
       id="linearGradient7263"
       x1="14"
       y1="14.5"
       x2="2"
       y2="18"
       gradientUnits="userSpaceOnUse"
       gradientTransform="translate(20,0)" />
    <linearGradient
       inkscape:collect="always"
       xlink:href="#linearGradient7379"
       id="linearGradient7276"
       x1="26.5"
       y1="6.5"
       x2="22"
       y2="13"
       gradientUnits="userSpaceOnUse"
       spreadMethod="reflect"
       gradientTransform="translate(20,0)" />
    <linearGradient
       inkscape:collect="always"
       xlink:href="#linearGradient7431"
       id="linearGradient7437"
       x1="26.5"
       y1="12"
       x2="26.5"
       y2="21.5"
       gradientUnits="userSpaceOnUse"
       gradientTransform="translate(20,0)" />
    <linearGradient
       inkscape:collect="always"
       xlink:href="#linearGradient7391"
       id="linearGradient3238"
       x1="11.5"
       y1="11"
       x2="8"
       y2="8"
       gradientUnits="userSpaceOnUse"
       spreadMethod="reflect"
       gradientTransform="matrix(1,-0.2679492,0,1,0,2.1435935)" />
    <linearGradient
       inkscape:collect="always"
       xlink:href="#linearGradient3267"
       id="linearGradient3261"
       gradientUnits="userSpaceOnUse"
       gradientTransform="matrix(1,-0.2679492,0,1,-1,1.4115427)"
       x1="2"
       y1="9"
       x2="15"
       y2="9" />
  </defs>
  <metadata
     id="metadata7">
    <rdf:RDF>
      <cc:Work
         rdf:about="">
        <dc:format>image/svg+xml</dc:format>
        <dc:type
           rdf:resource="http://purl.org/dc/dcmitype/StillImage" />
        <dc:creator>
          <cc:Agent>
            <dc:title>Arvid Axelsson</dc:title>
          </cc:Agent>
        </dc:creator>
        <cc:license
           rdf:resource="http://creativecommons.org/licenses/by-sa/3.0/" />
      </cc:Work>
      <cc:License
         rdf:about="http://creativecommons.org/licenses/by-sa/3.0/">
        <cc:permits
           rdf:resource="http://creativecommons.org/ns#Reproduction" />
        <cc:permits
           rdf:resource="http://creativecommons.org/ns#Distribution" />
        <cc:requires
           rdf:resource="http://creativecommons.org/ns#Notice" />
        <cc:requires
           rdf:resource="http://creativecommons.org/ns#Attribution" />
        <cc:permits
           rdf:resource="http://creativecommons.org/ns#DerivativeWorks" />
        <cc:requires
           rdf:resource="http://creativecommons.org/ns#ShareAlike" />
      </cc:License>
    </rdf:RDF>
  </metadata>
  <g
     inkscape:label="Layer 1"
     inkscape:groupmode="layer"
     id="layer1">
    <path
       id="path3263"
       style="opacity:1;fill:none;fill-opacity:1;fill-rule:evenodd;stroke:#977431;stroke-width:2;stroke-linecap:square;stroke-linejoin:round;marker:none;marker-start:none;marker-mid:none;marker-end:none;stroke-miterlimit:4;stroke-dasharray:none;stroke-opacity:1;visibility:visible;display:inline;overflow:visible;enable-background:accumulate"
       d="M 10.5,3.330127 C 9.132297,3.6966019 8,5.1322972 8,6.5 L 8,7 L 1,8.8756443 L 1,10.875644 L 2,10.607695 L 2,12.607695 L 3,12.339746 L 3,10.339746 L 4,10.071797 L 4,12.071797 L 6,11.535898 L 6,9.5358984 L 8,9 L 8,9.5 C 8,10.867703 9.132297,11.696602 10.5,11.330127 L 11.5,11.062178 C 12.867703,10.695703 14,9.2600078 14,7.8923048 L 14,4.8923048 C 14,3.524602 12.867703,2.6957029 11.5,3.0621778 L 10.5,3.330127 z M 10.5,5.330127 L 11.5,5.0621778 C 11.794297,4.9833212 12,5.133906 12,5.4282032 L 12,8.4282032 C 12,8.7225002 11.794297,8.9833212 11.5,9.0621778 L 10.5,9.330127 C 10.205703,9.4089837 10,9.2583986 10,8.9641016 L 10,5.9641016 C 10,5.6698044 10.205703,5.4089837 10.5,5.330127 zM 11.5,4.0621778 C 10.132297,4.4286527 9,5.864348 9,7.2320508 L 9,7.7320508 L 2,9.6076952 L 2,11.607695 L 3,11.339746 L 3,13.339746 L 4,13.071797 L 4,11.071797 L 5,10.803848 L 5,12.803848 L 7,12.267949 L 7,10.267949 L 9,9.7320508 L 9,10.232051 C 9,11.599754 10.132297,12.428653 11.5,12.062178 L 12.5,11.794229 C 13.867703,11.427754 15,9.9920587 15,8.6243557 L 15,5.6243557 C 15,4.2566529 13.867703,3.4277537 12.5,3.7942286 L 11.5,4.0621778 z M 11.5,6.0621778 L 12.5,5.7942286 C 12.794297,5.715372 13,5.8659568 13,6.160254 L 13,9.160254 C 13,9.454551 12.794297,9.715372 12.5,9.7942286 L 11.5,10.062178 C 11.205703,10.141034 11,9.9904494 11,9.6961524 L 11,6.6961524 C 11,6.4018552 11.205703,6.1410345 11.5,6.0621778 z" />
    <path
       id="path3240"
       d="M 10.5,3.330127 C 9.132297,3.6966019 8,5.1322972 8,6.5 L 8,7 L 1,8.8756443 L 1,10.875644 L 2,10.607695 L 2,12.607695 L 3,12.339746 L 3,10.339746 L 4,10.071797 L 4,12.071797 L 6,11.535898 L 6,9.5358984 L 8,9 L 8,9.5 C 8,10.867703 9.132297,11.696602 10.5,11.330127 L 11.5,11.062178 C 12.867703,10.695703 14,9.2600078 14,7.8923048 L 14,4.8923048 C 14,3.524602 12.867703,2.6957029 11.5,3.0621778 L 10.5,3.330127 z M 10.5,5.330127 L 11.5,5.0621778 C 11.794297,4.9833212 12,5.133906 12,5.4282032 L 12,8.4282032 C 12,8.7225002 11.794297,8.9833212 11.5,9.0621778 L 10.5,9.330127 C 10.205703,9.4089837 10,9.2583986 10,8.9641016 L 10,5.9641016 C 10,5.6698044 10.205703,5.4089837 10.5,5.330127 z"
       style="opacity:1;fill:url(#linearGradient3261);fill-opacity:1;fill-rule:evenodd;stroke:none;stroke-width:5;stroke-linecap:square;stroke-linejoin:miter;marker:none;marker-start:none;marker-mid:none;marker-end:none;stroke-miterlimit:4;stroke-dasharray:none;stroke-opacity:1;visibility:visible;display:inline;overflow:visible;enable-background:accumulate" />
    <path
       style="opacity:1;fill:url(#linearGradient3238);fill-opacity:1;fill-rule:evenodd;stroke:none;stroke-width:5;stroke-linecap:square;stroke-linejoin:miter;marker:none;marker-start:none;marker-mid:none;marker-end:none;stroke-miterlimit:4;stroke-dasharray:none;stroke-opacity:1;visibility:visible;display:inline;overflow:visible;enable-background:accumulate"
       d="M 11.5,4.0621778 C 10.132297,4.4286527 9,5.864348 9,7.2320508 L 9,7.7320508 L 2,9.6076952 L 2,11.607695 L 3,11.339746 L 3,13.339746 L 4,13.071797 L 4,11.071797 L 5,10.803848 L 5,12.803848 L 7,12.267949 L 7,10.267949 L 9,9.7320508 L 9,10.232051 C 9,11.599754 10.132297,12.428653 11.5,12.062178 L 12.5,11.794229 C 13.867703,11.427754 15,9.9920587 15,8.6243557 L 15,5.6243557 C 15,4.2566529 13.867703,3.4277537 12.5,3.7942286 L 11.5,4.0621778 z M 11.5,6.0621778 L 12.5,5.7942286 C 12.794297,5.715372 13,5.8659568 13,6.160254 L 13,9.160254 C 13,9.454551 12.794297,9.715372 12.5,9.7942286 L 11.5,10.062178 C 11.205703,10.141034 11,9.9904494 11,9.6961524 L 11,6.6961524 C 11,6.4018552 11.205703,6.1410345 11.5,6.0621778 z"
       id="rect3174" />
  </g>
</svg>
