<svg xmlns="http://www.w3.org/2000/svg" xmlns:xlink="http://www.w3.org/1999/xlink" width="16" height="16" version="1">
  <defs>
    <linearGradient id="a">
      <stop offset="0" stop-color="#183974"/>
      <stop offset="1" stop-color="#46a1ff"/>
    </linearGradient>
    <linearGradient id="c">
      <stop offset="0" stop-color="#2d90ff" stop-opacity="0"/>
      <stop offset=".5" stop-color="#7dd9ff"/>
      <stop offset="1" stop-color="#fff"/>
    </linearGradient>
    <linearGradient id="b">
      <stop offset="0" stop-color="#143778"/>
      <stop offset=".688" stop-color="#2173cf"/>
      <stop offset="1" stop-color="#91e0ff"/>
    </linearGradient>
    <linearGradient xlink:href="#a" id="e" x1="20" y1="23" x2="12" y2="9" gradientUnits="userSpaceOnUse"/>
    <linearGradient xlink:href="#b" id="d" x1="20.5" y1="21.5" x2="13" y2="9.5" gradientUnits="userSpaceOnUse"/>
    <linearGradient xlink:href="#c" id="f" gradientUnits="userSpaceOnUse" x1="17.5" y1="18.5" x2="12.5" y2="9.5"/>
    <filter id="g" x="-.12" width="1.24" y="-.12" height="1.24">
      <feGaussianBlur stdDeviation=".65"/>
    </filter>
  </defs>
  <path d="M23.5 16a7.5 7.5 0 1 1-15 0 7.5 7.5 0 1 1 15 0z" transform="translate(-8 -8)" fill="url(#d)"/>
  <path d="M5 6h3v4.5l1 .5v1H5v-1l1-.5v-3L5 7V6z" opacity=".2"/>
  <path d="M23.5 16a7.5 7.5 0 1 1-15 0 7.5 7.5 0 1 1 15 0z" transform="translate(-8 -8)" fill="none" stroke="url(#e)" stroke-linecap="round" stroke-linejoin="round"/>
  <path d="M22 16a6 6 0 1 1-12 0 6 6 0 1 1 12 0z" transform="translate(-8 -8)" fill="none" stroke="url(#f)" stroke-linecap="round" stroke-linejoin="round" filter="url(#g)"/>
  <path d="M8.5 3a1.5 1.5 0 1 1-3 0 1.5 1.5 0 1 1 3 0z" opacity=".2"/>
  <path d="M6 7h3v4.5l1 .5v1H6v-1l1-.5v-3L6 8V7zM9.5 4a1.5 1.5 0 1 1-3 0 1.5 1.5 0 1 1 3 0z" fill="#fff"/>
</svg>
