<svg xmlns="http://www.w3.org/2000/svg" xmlns:xlink="http://www.w3.org/1999/xlink" width="32" height="32" version="1">
  <defs>
    <linearGradient id="a">
      <stop offset="0" stop-color="#183974"/>
      <stop offset="1" stop-color="#46a1ff"/>
    </linearGradient>
    <linearGradient id="c">
      <stop offset="0" stop-color="#2d90ff" stop-opacity="0"/>
      <stop offset=".5" stop-color="#7dd9ff"/>
      <stop offset="1" stop-color="#fff"/>
    </linearGradient>
    <linearGradient id="b">
      <stop offset="0" stop-color="#143778"/>
      <stop offset=".688" stop-color="#2173cf"/>
      <stop offset="1" stop-color="#91e0ff"/>
    </linearGradient>
    <linearGradient xlink:href="#a" id="e" x1="20.5" y1="17.5" x2="12.5" y2="4.5" gradientUnits="userSpaceOnUse"/>
    <linearGradient xlink:href="#b" id="d" x1="27.5" y1="27.5" x2="10.5" y2="3" gradientUnits="userSpaceOnUse"/>
    <linearGradient xlink:href="#c" id="f" gradientUnits="userSpaceOnUse" x1="19.5" y1="18.5" x2="11" y2="2.5"/>
    <filter id="g">
      <feGaussianBlur stdDeviation=".713"/>
    </filter>
  </defs>
  <path d="M31.5 16a15.5 15.5 0 1 1-31 0 15.5 15.5 0 1 1 31 0z" fill="url(#d)"/>
  <path d="M31.5 16a15.5 15.5 0 1 1-31 0 15.5 15.5 0 1 1 31 0z" fill="none" stroke="url(#e)" stroke-linecap="round" stroke-linejoin="round"/>
  <path d="M29.5 16a13.5 13.5 0 1 1-27 0 13.5 13.5 0 1 1 27 0z" fill="none" stroke="url(#f)" stroke-width="1.5" stroke-linecap="round" stroke-linejoin="round" filter="url(#g)"/>
  <text style="text-align:start;line-height:125%;-inkscape-font-specification:Georgia Bold" x="11.117" y="24.57" font-size="22" font-weight="700" fill="#002f88" font-family="Georgia" opacity=".5">
    <tspan x="11.117" y="24.57">i</tspan>
  </text>
  <text y="25.07" x="12.117" style="text-align:start;line-height:125%;-inkscape-font-specification:Georgia Bold" font-size="22" font-weight="700" fill="#fff" font-family="Georgia">
    <tspan y="25.07" x="12.117">i</tspan>
  </text>
</svg>
