<svg xmlns="http://www.w3.org/2000/svg" xmlns:xlink="http://www.w3.org/1999/xlink" width="24" height="24" version="1">
  <defs>
    <linearGradient id="a">
      <stop offset="0" stop-color="#0066a0"/>
      <stop offset="1" stop-color="#69c1ff"/>
    </linearGradient>
    <linearGradient id="b">
      <stop offset="0" stop-color="#fff"/>
      <stop offset="1" stop-color="#cdd9ff"/>
    </linearGradient>
    <linearGradient id="d">
      <stop offset="0" stop-color="#6293ca"/>
      <stop offset="1" stop-color="#a7d1e9"/>
    </linearGradient>
    <linearGradient id="c">
      <stop offset="0" stop-color="#fff"/>
      <stop offset=".5" stop-color="#e1f8ff"/>
      <stop offset="1" stop-color="#a1c6ef"/>
    </linearGradient>
    <linearGradient xlink:href="#a" id="k" x1="18.5" y1="10" x2="20" y2="8.5" gradientUnits="userSpaceOnUse"/>
    <linearGradient xlink:href="#b" id="l" gradientUnits="userSpaceOnUse" gradientTransform="translate(1 6)" x1="15" y1="5" x2="17" y2="17"/>
    <linearGradient xlink:href="#c" id="i" gradientUnits="userSpaceOnUse" gradientTransform="matrix(1.33333 0 0 1.33333 -.333 1)" x1="11.5" y1="6.75" x2="13.75" y2="15.75"/>
    <linearGradient xlink:href="#d" id="j" gradientUnits="userSpaceOnUse" gradientTransform="translate(1 6)" x1="7" y1="18" x2="7"/>
    <linearGradient xlink:href="#c" id="e" gradientUnits="userSpaceOnUse" gradientTransform="matrix(1.33333 0 0 1.33333 -6.333 -5)" x1="11.5" y1="6.75" x2="13.75" y2="15.75"/>
    <linearGradient xlink:href="#d" id="f" gradientUnits="userSpaceOnUse" gradientTransform="translate(-5)" x1="7" y1="18" x2="7"/>
    <linearGradient xlink:href="#a" id="g" gradientUnits="userSpaceOnUse" x1="18.5" y1="10" x2="20" y2="8.5" gradientTransform="translate(-6 -6)"/>
    <linearGradient xlink:href="#b" id="h" gradientUnits="userSpaceOnUse" gradientTransform="translate(-5)" x1="15" y1="5" x2="17" y2="17"/>
  </defs>
  <path d="M2.5 17.5h13V4L12 .5H2.5v17z" fill="url(#e)" fill-rule="evenodd" stroke="url(#f)"/>
  <path d="M12 0v4h4" fill="url(#g)" fill-rule="evenodd"/>
  <path d="M14.5 6v10.5H3.453L3.5 1" fill="none" stroke="url(#h)"/>
  <path opacity=".15" fill="#001764" d="M7 5h9v13H7z"/>
  <path d="M8.5 23.5h13V10L18 6.5H8.5v17z" fill="url(#i)" fill-rule="evenodd" stroke="url(#j)"/>
  <path d="M18 6v4h4" fill="url(#k)" fill-rule="evenodd"/>
  <path d="M20.5 12v10.5H9.453L9.5 7" fill="none" stroke="url(#l)"/>
</svg>
