<svg xmlns="http://www.w3.org/2000/svg" xmlns:xlink="http://www.w3.org/1999/xlink" width="16" height="16" version="1">
  <defs>
    <linearGradient id="a">
      <stop offset="0" stop-color="#e4d65f"/>
      <stop offset="1" stop-color="#fffee1"/>
    </linearGradient>
    <linearGradient id="b">
      <stop offset="0" stop-color="#cfb021"/>
      <stop offset=".552" stop-color="#ece990"/>
      <stop offset="1" stop-color="#fff"/>
    </linearGradient>
    <linearGradient xlink:href="#a" id="c" x1="5.177" y1="9.844" x2="7.511" y2="9.511" gradientUnits="userSpaceOnUse" gradientTransform="rotate(-90 5.5 9.766) scale(1.5)"/>
    <linearGradient xlink:href="#b" id="d" gradientUnits="userSpaceOnUse" gradientTransform="rotate(-90 5.5 8.766) scale(1.5)" x1=".844" y1="10.844" x2="6.177" y2="9.844"/>
  </defs>
  <path d="M2 4v10h12l-.031-8.969L6.5 5l-1-1H2z" fill="none" stroke="#c2a256" stroke-width="2" stroke-linejoin="round"/>
  <path d="M14 14V5H6.5l-1-1H2v10h12z" fill="url(#c)" fill-rule="evenodd"/>
  <path d="M2 14h12V5H2v9z" opacity=".3" fill="#784600" fill-rule="evenodd"/>
  <path d="M2 14h12V5H6.5l-1 1H2v8z" fill="url(#d)" fill-rule="evenodd"/>
  <path d="M2 13.5h11.5V5" opacity=".518" fill="none" stroke="#fff" stroke-linejoin="round"/>
  <path style="marker:none" d="M5 6.5a6.5 6.5 0 0 1 6.5 6.5" opacity=".7" fill="none" stroke="#0054b4" stroke-linejoin="round" overflow="visible"/>
  <path style="marker:none" d="M5 9a4 4 0 0 1 4 4" fill="none" stroke="#0054b4" stroke-linejoin="round" overflow="visible"/>
  <path style="marker:none" d="M6.75 12.5a1.25 1.25 0 1 1-2.5 0 1.25 1.25 0 1 1 2.5 0z" fill="#0055b4" fill-rule="evenodd" overflow="visible"/>
</svg>
