<svg xmlns="http://www.w3.org/2000/svg" xmlns:xlink="http://www.w3.org/1999/xlink" width="24" height="24" version="1">
  <defs>
    <linearGradient id="b">
      <stop offset="0" stop-color="#fff"/>
      <stop offset=".5" stop-color="#e1f8ff"/>
      <stop offset="1" stop-color="#a5c8ec"/>
    </linearGradient>
    <linearGradient id="c">
      <stop offset="0" stop-color="#fff"/>
      <stop offset="1" stop-color="#e1e9ff"/>
    </linearGradient>
    <linearGradient id="a">
      <stop offset="0" stop-color="#cca138"/>
      <stop offset=".45" stop-color="#e1d876"/>
      <stop offset=".73" stop-color="#ffffa5"/>
      <stop offset="1" stop-color="#fff"/>
    </linearGradient>
    <linearGradient id="d">
      <stop offset="0" stop-color="#fff"/>
      <stop offset=".402" stop-color="#bddbe8"/>
      <stop offset="1" stop-color="#91bbd8"/>
    </linearGradient>
    <linearGradient xlink:href="#a" id="e" x1="18.341" y1="22.418" x2="7.718" y2="7.684" gradientUnits="userSpaceOnUse" gradientTransform="matrix(.94136 0 0 .95013 .735 .7)"/>
    <linearGradient xlink:href="#b" id="f" gradientUnits="userSpaceOnUse" gradientTransform="matrix(1.33333 0 0 1.33333 -.333 -4)" x1="13" y1="10.5" x2="14.5" y2="15.75"/>
    <linearGradient xlink:href="#c" id="g" gradientUnits="userSpaceOnUse" gradientTransform="translate(1 1)" x1="10.571" y1="5.426" x2="16.581" y2="22.256"/>
    <linearGradient xlink:href="#d" id="h" gradientUnits="userSpaceOnUse" gradientTransform="matrix(1 0 0 1.0018 0 -.513)" spreadMethod="reflect" x1="12" y1="4.005" x2="15.548" y2="6.33"/>
  </defs>
  <rect style="marker:none" width="17.003" height="19.003" x="3.5" y="4.5" rx="1" ry="1" fill="url(#e)" fill-rule="evenodd" stroke="#bea446" stroke-linecap="square" stroke-linejoin="round" overflow="visible"/>
  <path d="M4.5 22.5h15v-17" fill="none" stroke="#feffa3" stroke-linejoin="round" opacity=".5"/>
  <path d="M9.5 18.5h13v-12h-13v12z" fill="url(#f)" fill-rule="evenodd" stroke="#76a2d3"/>
  <path d="M21.5 7.5v10h-11v-10" fill="none" stroke="url(#g)"/>
  <path style="marker:none" d="M12 .5A2.5 2.5 0 0 0 9.5 3c0 .172.03.337.063.5H7.5v4h9v-4h-2.063c.034-.163.063-.328.063-.5A2.5 2.5 0 0 0 12 .5z" fill="url(#h)" fill-rule="evenodd" stroke="#6d94bf" overflow="visible"/>
  <path style="marker:none" d="M13 11.5h7M12 13.5h6" fill="none" stroke="#9ac8da" overflow="visible"/>
</svg>
