<svg xmlns="http://www.w3.org/2000/svg" xmlns:xlink="http://www.w3.org/1999/xlink" width="24" height="24" version="1">
  <defs>
    <linearGradient id="f">
      <stop offset="0" stop-color="#fff"/>
      <stop offset="1" stop-color="#8c8c8c"/>
    </linearGradient>
    <linearGradient id="e">
      <stop offset="0" stop-color="#fff"/>
      <stop offset=".5" stop-color="#d6ebfa"/>
      <stop offset="1" stop-color="#97b3d2"/>
    </linearGradient>
    <linearGradient id="d">
      <stop offset="0" stop-color="#323232"/>
      <stop offset="1" stop-color="#b4b4b4"/>
    </linearGradient>
    <linearGradient id="c">
      <stop offset="0" stop-color="#787878"/>
      <stop offset="1" stop-color="#dcdcdc"/>
    </linearGradient>
    <linearGradient id="b">
      <stop offset="0" stop-color="#aaa"/>
      <stop offset="1" stop-color="#fff"/>
    </linearGradient>
    <linearGradient id="a">
      <stop offset="0" stop-color="#fff"/>
      <stop offset="1" stop-color="#dcdcdc"/>
    </linearGradient>
    <linearGradient xlink:href="#a" id="i" gradientUnits="userSpaceOnUse" gradientTransform="matrix(-.04753 0 0 .05185 22.387 -2.26)" x1="196.791" y1="286.797" x2="205.958" y2="210.907"/>
    <linearGradient xlink:href="#b" id="j" gradientUnits="userSpaceOnUse" gradientTransform="matrix(-.04753 0 0 .05185 22.387 -2.26)" x1="373.351" y1="301.634" x2="431.213" y2="372.688"/>
    <linearGradient xlink:href="#c" id="k" gradientUnits="userSpaceOnUse" gradientTransform="matrix(-1 0 0 1 24 -1.5)" x1="16.714" y1="16.214" x2="16.25" y2="20.5"/>
    <linearGradient xlink:href="#d" id="h" x1="14.321" y1="8.357" x2="15.536" y2="1.357" gradientUnits="userSpaceOnUse" gradientTransform="matrix(-1 0 0 1 23.5 .5)"/>
    <linearGradient xlink:href="#e" id="g" gradientUnits="userSpaceOnUse" gradientTransform="matrix(-1 0 0 1 15.5 -14.75)" x1="5.893" y1="20.25" x2="5.036" y2="24.054"/>
    <linearGradient xlink:href="#f" id="l" x1="17.107" y1="20.393" x2="16.643" y2="18.321" gradientUnits="userSpaceOnUse" gradientTransform="translate(-1 -.25)"/>
  </defs>
  <path d="M12 1.5l2.75 7.25-9.5 1.75-2.5-7.75L12 1.5z" fill="url(#g)" fill-rule="evenodd" stroke="#b2cdde" stroke-width="2"/>
  <path d="M15.821 7.75l-2.357-5.714-12.071 1.5L3.25 9.5l12.571-1.75z" fill="url(#h)" fill-rule="evenodd"/>
  <path d="M9.5 19.5l2.821 2.607 9.893-2.357L19.5 17.5l-10 2z" fill="none" stroke="#b9b9b9" stroke-width="2" stroke-linejoin="round"/>
  <path d="M1 11v5.5L5.5 20 23 16.5V12c-1.383-2.37-2.329-3.382-5.017-4L1 11z" fill="none" stroke="#aaa" stroke-width="2"/>
  <path d="M12 1.5l2.75 7.25-9.5 1.75-2.5-7.75L12 1.5z" fill="url(#g)" fill-rule="evenodd"/>
  <path d="M23 12c-1.032-2.465-3.383-3.872-5.017-4L1 11l4.5 4.5L23 12z" fill="url(#i)" fill-rule="evenodd"/>
  <path d="M5.5 20v-4.5C4.878 13.056 2.573 11.229 1 11v5.5L5.5 20z" fill="url(#j)" fill-rule="evenodd"/>
  <path d="M5.5 20v-4.5L23 12v4.5L5.5 20z" fill="url(#k)" fill-rule="evenodd"/>
  <path d="M8 19.5v-2L21 15v2L8 19.5z" opacity=".8" fill="#282828" fill-rule="evenodd"/>
  <path d="M9.5 19.25l2.821 2.607 9.893-2.357-2.714-2.25-10 2z" fill="url(#l)" fill-rule="evenodd"/>
</svg>
