<svg xmlns="http://www.w3.org/2000/svg" xmlns:xlink="http://www.w3.org/1999/xlink" width="32" height="32" version="1">
  <defs>
    <linearGradient id="a">
      <stop offset="0" stop-color="#115b8f"/>
      <stop offset="1" stop-color="#6dbde7"/>
    </linearGradient>
    <linearGradient id="b">
      <stop offset="0" stop-color="#3888cc"/>
      <stop offset=".653" stop-color="#b9ebff"/>
      <stop offset="1" stop-color="#ebfcff"/>
    </linearGradient>
    <linearGradient xlink:href="#a" id="d" x1="14" y1="30" x2="8" y2="2" gradientUnits="userSpaceOnUse" gradientTransform="translate(1 1)"/>
    <linearGradient xlink:href="#b" id="c" gradientUnits="userSpaceOnUse" gradientTransform="translate(1 1)" x1="21" y1="26" x2="4" y2="3"/>
  </defs>
  <path d="M1 29V5h8.5c.5 2-2 2.315-2 4 0 2.484 2.016 3 4.5 3s4.5-.516 4.5-3c0-1.627-2.5-2-2-4H23v9.5c2 .5 2.373-2 4-2 2.484 0 3 2.016 3 4.5s-.516 4.5-3 4.5c-1.685 0-2-2.5-4-2V29h-8.5c-.5-2 2-2.373 2-4 0-2.484-2.016-3-4.5-3s-4.5.516-4.5 3c0 1.685 2.5 2 2 4H1z" fill="url(#c)" fill-rule="evenodd" stroke="url(#d)" stroke-width="2"/>
</svg>
