<svg xmlns="http://www.w3.org/2000/svg" xmlns:xlink="http://www.w3.org/1999/xlink" width="32" height="32" version="1">
  <defs>
    <linearGradient id="a">
      <stop offset="0" stop-color="#3888cc"/>
      <stop offset=".653" stop-color="#b9ebff"/>
      <stop offset="1" stop-color="#ebfcff"/>
    </linearGradient>
    <linearGradient id="c">
      <stop offset="0" stop-color="#1d71ab"/>
      <stop offset="1" stop-color="#8ed1ee"/>
    </linearGradient>
    <linearGradient id="f">
      <stop offset="0" stop-color="#115b8f"/>
      <stop offset="1" stop-color="#3ba6de"/>
    </linearGradient>
    <linearGradient id="b">
      <stop offset="0" stop-color="#3b9bde"/>
      <stop offset=".5" stop-color="#a1d8ef"/>
      <stop offset="1" stop-color="#e1faff"/>
    </linearGradient>
    <linearGradient id="e">
      <stop offset="0" stop-color="#004578"/>
      <stop offset=".5" stop-color="#0d5c93"/>
      <stop offset="1" stop-color="#a1d9ef"/>
    </linearGradient>
    <linearGradient id="d">
      <stop offset="0" stop-color="#002f50"/>
      <stop offset="1" stop-color="#3a9ade"/>
    </linearGradient>
    <linearGradient xlink:href="#a" id="A" gradientUnits="userSpaceOnUse" x1="25" y1="23" x2="6" y2="5" gradientTransform="translate(-1)"/>
    <linearGradient xlink:href="#b" id="x" gradientUnits="userSpaceOnUse" x1="26" y1="25" x2="4" y2="14" gradientTransform="translate(-1)"/>
    <linearGradient xlink:href="#b" id="w" gradientUnits="userSpaceOnUse" x1="26" y1="25" x2="4" y2="14" gradientTransform="translate(-1)"/>
    <linearGradient xlink:href="#b" id="v" gradientUnits="userSpaceOnUse" x1="26" y1="25" x2="4" y2="14" gradientTransform="translate(-1)"/>
    <linearGradient xlink:href="#b" id="u" gradientUnits="userSpaceOnUse" x1="26" y1="25" x2="4" y2="14" gradientTransform="translate(-1)"/>
    <linearGradient xlink:href="#b" id="s" gradientUnits="userSpaceOnUse" x1="26" y1="25" x2="4" y2="14" gradientTransform="translate(-1)"/>
    <linearGradient xlink:href="#b" id="r" gradientUnits="userSpaceOnUse" x1="26" y1="25" x2="4" y2="14" gradientTransform="translate(-1)"/>
    <linearGradient xlink:href="#b" id="q" gradientUnits="userSpaceOnUse" x1="26" y1="25" x2="4" y2="14" gradientTransform="translate(-1)"/>
    <linearGradient xlink:href="#b" id="p" gradientUnits="userSpaceOnUse" x1="26" y1="25" x2="4" y2="14" gradientTransform="translate(-1)"/>
    <linearGradient xlink:href="#b" id="o" gradientUnits="userSpaceOnUse" x1="26" y1="25" x2="4" y2="14" gradientTransform="translate(-1)"/>
    <linearGradient xlink:href="#b" id="n" gradientUnits="userSpaceOnUse" x1="26" y1="25" x2="4" y2="14" gradientTransform="translate(-1)"/>
    <linearGradient xlink:href="#b" id="m" gradientUnits="userSpaceOnUse" x1="26" y1="25" x2="4" y2="14" gradientTransform="translate(-1)"/>
    <linearGradient xlink:href="#b" id="l" gradientUnits="userSpaceOnUse" x1="26" y1="25" x2="4" y2="14" gradientTransform="translate(-1)"/>
    <linearGradient xlink:href="#b" id="k" gradientUnits="userSpaceOnUse" x1="26" y1="25" x2="4" y2="14" gradientTransform="translate(-1)"/>
    <linearGradient xlink:href="#b" id="j" gradientUnits="userSpaceOnUse" x1="26" y1="25" x2="4" y2="14" gradientTransform="translate(-1)"/>
    <linearGradient xlink:href="#b" id="i" gradientUnits="userSpaceOnUse" x1="26" y1="25" x2="4" y2="14" gradientTransform="translate(-1)"/>
    <linearGradient xlink:href="#b" id="h" gradientUnits="userSpaceOnUse" x1="26" y1="25" x2="4" y2="14" gradientTransform="translate(-1)"/>
    <linearGradient xlink:href="#c" id="B" gradientUnits="userSpaceOnUse" x1="4" y1="30" x2="4" y2="6" gradientTransform="translate(-1)"/>
    <linearGradient xlink:href="#d" id="y" x1="18" y1="21" x2="16" y2="28" gradientUnits="userSpaceOnUse"/>
    <linearGradient xlink:href="#e" id="z" x1="15" y1="3" x2="15" y2="10" gradientUnits="userSpaceOnUse"/>
    <linearGradient xlink:href="#e" id="t" x1="23.26" y1="9.55" x2="29.598" y2="9.55" gradientUnits="userSpaceOnUse"/>
    <linearGradient xlink:href="#f" id="g" x1="28" y1="27" x2="28" y2="-.019" gradientUnits="userSpaceOnUse"/>
  </defs>
  <path d="M2 40v26l28-7V36L2 40z" fill="#8e8e8e" fill-rule="evenodd"/>
  <g transform="translate(-1)" fill="none" stroke="url(#g)" stroke-width="2" stroke-linejoin="round">
    <g fill-rule="evenodd">
      <path d="M4 5v26l-1.997-.649v-26L4 5z"/>
      <path d="M4 31l9.327-2.332-1.997-.649-9.327 2.332L4 31z"/>
      <path d="M13.327 28.668c.471-2.197-1.903-1.956-1.903-3.725l-1.998-.649c0 1.77 2.375 1.528 1.904 3.725l1.997.65z"/>
      <path d="M11.424 24.943c0-2.608 1.918-3.57 4.24-4.078l-1.998-.649c-2.321.508-4.24 1.47-4.24 4.078l1.998.65z"/>
      <path d="M15.664 20.865c1.083-.237 2.062-.332 2.79-.096l-1.996-.649c-.729-.236-1.708-.14-2.792.096l1.998.65z"/>
      <path d="M18.455 20.77c.8.26 1.298.922 1.298 2.24l-1.997-.65c0-1.317-.497-1.98-1.298-2.24l1.997.65zM19.753 23.01c0 1.648-2.254 2.569-1.8 4.502l-1.996-.65c-.455-1.932 1.8-2.853 1.8-4.501l1.996.649z"/>
      <path d="M17.954 27.512l8.303-2.076-1.997-.65-8.303 2.077 1.997.649z"/>
      <path d="M26.257 25.436v-9.348l-1.997-.649v9.348l1.997.649zM26.257 16.088l-1.997-.649 1.997.649z"/>
      <path d="M26.257 16.088c.405-.202.73-.216 1.009-.126l-1.997-.649c-.28-.09-.604-.076-1.009.126l1.997.649z"/>
      <path d="M27.266 15.962c.748.243 1.165 1.24 1.906 1.383l-1.997-.65c-.741-.143-1.159-1.139-1.906-1.382l1.997.65z"/>
      <path d="M29.172 17.345a.992.992 0 0 0 .404-.008l-1.997-.649a.992.992 0 0 1-.404.008l1.997.649z"/>
      <path d="M29.576 17.337C31.586 16.902 32 14.88 32 12.5l-1.997-.649c0 2.38-.413 4.402-2.424 4.837l1.997.65z"/>
      <path d="M32 12.5c0-1.905-.265-3.477-1.402-3.846l-1.997-.65c1.137.37 1.402 1.942 1.402 3.847L32 12.5z"/>
      <path d="M30.598 8.654c-.283-.092-.62-.11-1.022-.039l-1.997-.649c.401-.07.739-.053 1.022.039l1.997.649z"/>
      <path d="M29.576 8.615c-1.385.244-1.647 2.732-3.319 2.553l-1.997-.649c1.672.179 1.933-2.309 3.319-2.553l1.997.649z"/>
      <path d="M26.257 11.168V1.82l-1.997-.649v9.348l1.997.65z"/>
      <path d="M26.257 1.82l-1.997-.649 1.997.65z"/>
      <path d="M26.257 1.82l-8.303 1.187-1.997-.65 8.303-1.186 1.997.65z"/>
      <path d="M17.954 3.007c-.455 2.11 1.8 2.146 1.8 3.795l-1.998-.65c0-1.647-2.254-1.683-1.8-3.794l1.998.649zM19.753 6.802c0 2.516-1.814 3.354-4.09 3.75l-1.997-.648c2.276-.397 4.09-1.235 4.09-3.751l1.997.649z"/>
      <path d="M15.664 10.553c-1.063.185-2.042.241-2.79-.002l-1.997-.649c.748.243 1.727.187 2.79.002l1.997.649z"/>
      <path d="M12.874 10.551c-.887-.288-1.45-.996-1.45-2.41l-1.998-.65c0 1.415.564 2.123 1.45 2.411l1.998.65z"/>
      <path d="M11.424 8.14c0-1.769 2.374-2.46 1.903-4.472l-1.997-.65c.47 2.013-1.904 2.704-1.904 4.473l1.998.65z"/>
      <path d="M13.327 3.668L4 5l-1.997-.649L11.33 3.02l1.997.649zM4 5l-1.997-.649L4 5z"/>
    </g>
    <path d="M4 5v26l9.327-2.332c.471-2.197-1.903-1.956-1.903-3.725 0-2.608 1.918-3.57 4.24-4.078 2.275-.498 4.09-.372 4.09 2.145 0 1.648-2.255 2.569-1.8 4.502l8.303-2.076v-9.348c1.672-.835 1.981 1.539 3.319 1.25C31.586 16.901 32 14.88 32 12.5s-.413-4.24-2.424-3.885c-1.385.244-1.647 2.732-3.319 2.553V1.82l-8.303 1.187c-.455 2.11 1.8 2.146 1.8 3.795 0 2.516-1.815 3.354-4.09 3.75-2.322.405-4.24.197-4.24-2.412 0-1.769 2.374-2.46 1.903-4.472L4 5"/>
  </g>
  <path d="M3 31l9.327-2.332-1.997-.649-9.327 2.332L3 31z" fill="url(#h)" fill-rule="evenodd"/>
  <path d="M12.327 28.668c.471-2.197-1.903-1.956-1.903-3.725l-1.998-.649c0 1.77 2.375 1.528 1.904 3.725l1.997.65z" fill="url(#i)" fill-rule="evenodd"/>
  <path d="M10.424 24.943c0-2.608 1.918-3.57 4.24-4.078l-1.998-.649c-2.321.508-4.24 1.47-4.24 4.078l1.998.65z" fill="url(#j)" fill-rule="evenodd"/>
  <path d="M14.664 20.865c1.083-.237 2.062-.332 2.79-.096l-1.996-.649c-.729-.236-1.708-.14-2.792.096l1.998.65z" fill="url(#k)" fill-rule="evenodd"/>
  <path d="M16.954 27.512l8.303-2.076-1.997-.65-8.303 2.077 1.997.649z" fill="url(#l)" fill-rule="evenodd"/>
  <path d="M25.257 25.436v-9.348l-1.997-.649v9.348l1.997.649z" fill="url(#m)" fill-rule="evenodd"/>
  <path d="M25.257 16.088l-1.997-.649 1.997.649z" fill="url(#n)" fill-rule="evenodd"/>
  <path d="M25.257 16.088c.405-.202.73-.216 1.009-.126l-1.997-.649c-.28-.09-.604-.076-1.009.126l1.997.649z" fill="url(#o)" fill-rule="evenodd"/>
  <path d="M28.172 17.345a.992.992 0 0 0 .404-.008l-1.997-.649a.992.992 0 0 1-.404.008l1.997.649z" fill="url(#p)" fill-rule="evenodd"/>
  <path d="M28.576 17.337C30.586 16.902 31 14.88 31 12.5l-1.997-.649c0 2.38-.413 4.402-2.424 4.837l1.997.65z" fill="url(#q)" fill-rule="evenodd"/>
  <path d="M31 12.5c0-1.905-.265-3.477-1.402-3.846l-1.997-.65c1.137.37 1.402 1.942 1.402 3.847L31 12.5z" fill="url(#r)" fill-rule="evenodd"/>
  <path d="M25.257 11.168V1.82l-1.997-.649v9.348l1.997.65z" fill="url(#s)" fill-rule="evenodd"/>
  <g fill="url(#t)" fill-rule="evenodd">
    <path d="M29.598 8.654c-.283-.092-.62-.11-1.022-.039l-1.997-.649c.401-.07.739-.053 1.022.039l1.997.649z"/>
    <path d="M28.576 8.615c-1.385.244-1.647 2.732-3.319 2.553l-1.997-.649c1.672.179 1.933-2.309 3.319-2.553l1.997.649z"/>
  </g>
  <path d="M25.257 1.82l-1.997-.649 1.997.65z" fill="url(#u)" fill-rule="evenodd"/>
  <path d="M25.257 1.82l-8.303 1.187-1.997-.65 8.303-1.186 1.997.65z" fill="#fff" fill-rule="evenodd"/>
  <path d="M11.874 10.551c-.887-.288-1.45-.996-1.45-2.41l-1.998-.65c0 1.415.564 2.123 1.45 2.411l1.998.65z" fill="url(#v)" fill-rule="evenodd"/>
  <path d="M10.424 8.14c0-1.769 2.374-2.46 1.903-4.472l-1.997-.65c.47 2.013-1.904 2.704-1.904 4.473l1.998.65z" fill="url(#w)" fill-rule="evenodd"/>
  <path d="M12.327 3.668L3 5l-1.997-.649L10.33 3.02l1.997.649z" fill="#fff" fill-rule="evenodd"/>
  <path d="M3 5l-1.997-.649L3 5z" fill="url(#x)" fill-rule="evenodd"/>
  <g fill="url(#y)" fill-rule="evenodd">
    <path d="M17.455 20.77c.8.26 1.298.922 1.298 2.24l-1.997-.65c0-1.317-.497-1.98-1.298-2.24l1.997.65zM18.753 23.01c0 1.648-2.254 2.569-1.8 4.502l-1.996-.65c-.455-1.932 1.8-2.853 1.8-4.501l1.996.649z"/>
  </g>
  <g fill="url(#z)" fill-rule="evenodd">
    <path d="M16.954 3.007c-.455 2.11 1.8 2.146 1.8 3.795l-1.998-.65c0-1.647-2.254-1.683-1.8-3.794l1.998.649zM18.753 6.802c0 2.516-1.814 3.354-4.09 3.75l-1.997-.648c2.276-.397 4.09-1.235 4.09-3.751l1.997.649z"/>
    <path d="M14.664 10.553c-1.063.185-2.042.241-2.79-.002l-1.997-.649c.748.243 1.727.187 2.79.002l1.997.649z"/>
  </g>
  <path d="M26.266 15.962c.748.243 1.165 1.24 1.906 1.383l-1.997-.65c-.741-.143-1.159-1.139-1.906-1.382l1.997.65z" fill="#002f50" fill-rule="evenodd"/>
  <path d="M3 5v26l9.327-2.332c.471-2.197-1.903-1.956-1.903-3.725 0-2.608 1.918-3.57 4.24-4.078 2.275-.498 4.09-.372 4.09 2.145 0 1.648-2.255 2.569-1.8 4.502l8.303-2.076v-9.348c1.672-.835 1.981 1.539 3.319 1.25C30.586 16.901 31 14.88 31 12.5s-.413-4.24-2.424-3.885c-1.385.244-1.647 2.732-3.319 2.553V1.82l-8.303 1.187c-.455 2.11 1.8 2.146 1.8 3.795 0 2.516-1.815 3.354-4.09 3.75-2.322.405-4.24.197-4.24-2.412 0-1.769 2.374-2.46 1.903-4.472L3 5" fill="url(#A)" fill-rule="evenodd"/>
  <path d="M3 5v26l-1.997-.649v-26L3 5z" fill="url(#B)" fill-rule="evenodd"/>
</svg>
