<svg xmlns="http://www.w3.org/2000/svg" xmlns:xlink="http://www.w3.org/1999/xlink" width="32" height="32" version="1">
  <defs>
    <linearGradient id="f">
      <stop offset="0" stop-color="#60c242"/>
      <stop offset=".691" stop-color="#bdff82"/>
      <stop offset="1" stop-color="#fff"/>
    </linearGradient>
    <linearGradient id="e">
      <stop offset="0" stop-color="#7489a3"/>
      <stop offset="1" stop-color="#fff"/>
    </linearGradient>
    <linearGradient id="b">
      <stop offset="0" stop-color="#1d1d1d"/>
      <stop offset="1" stop-color="#969696"/>
    </linearGradient>
    <linearGradient id="a">
      <stop offset="0" stop-color="#fff"/>
      <stop offset="1" stop-color="#969696"/>
    </linearGradient>
    <linearGradient id="c">
      <stop offset="0" stop-color="#fff"/>
      <stop offset="1" stop-color="#fff" stop-opacity="0"/>
    </linearGradient>
    <linearGradient id="d">
      <stop offset="0" stop-color="#e1feff"/>
      <stop offset=".347" stop-color="#91dfff"/>
      <stop offset="1" stop-color="#0055f0"/>
    </linearGradient>
    <radialGradient xlink:href="#a" id="g" cx="7.022" cy="34.319" fx="7.022" fy="34.319" r="8" gradientTransform="matrix(1.63498 0 0 .81749 -4.637 4.91)" gradientUnits="userSpaceOnUse"/>
    <linearGradient xlink:href="#b" id="h" x1="16" y1="22" x2="16.5" y2="26" gradientUnits="userSpaceOnUse" gradientTransform="translate(-2)"/>
    <linearGradient xlink:href="#c" id="k" gradientUnits="userSpaceOnUse" gradientTransform="matrix(.96472 -.26795 .13165 1 -2.325 3.385)" x1="9.5" y1="-4" x2="16" y2="16"/>
    <radialGradient xlink:href="#d" id="j" gradientUnits="userSpaceOnUse" gradientTransform="matrix(0 1.88822 -2.10462 .29663 14.334 -15.398)" cx="9.813" cy=".79" fx="9.813" fy=".79" r="10.5"/>
    <linearGradient xlink:href="#e" id="i" gradientUnits="userSpaceOnUse" gradientTransform="matrix(.96472 -.26795 .13165 1 -2.874 3.02)" x1="17.099" y1="18.062" x2="12.586" y2="9.353"/>
    <linearGradient xlink:href="#f" id="l" gradientUnits="userSpaceOnUse" gradientTransform="translate(-.5 -.5)" x1="27.5" y1="28" x2="25.5" y2="19.5"/>
  </defs>
  <g fill-rule="evenodd">
    <path d="M22 26a7.592 3.952-10.458 1 1-15 2 7.592 3.952-10.458 1 1 15-2z" style="marker:none" fill="#505050" overflow="visible"/>
    <path d="M1.718 6.548l20.39-4.56c.746-.166 1.424.317 1.525 1.082l1.861 14.14c.101.765-.41 1.553-1.149 1.77L4.132 24.881c-.866.253-1.656-.215-1.766-1.05L.336 8.409c-.11-.835.509-1.665 1.382-1.86" style="marker:none" fill="#99a9bb" stroke="#99a8bb" stroke-width=".5" stroke-linecap="square" stroke-linejoin="round" overflow="visible"/>
    <path style="marker:none" d="M18.571 30A8.571 4 0 1 1 1.43 30a8.571 4 0 1 1 17.142 0z" transform="matrix(.875 -.11667 0 1 5.75 -2.833)" fill="url(#g)" overflow="visible"/>
    <path d="M12 27v-4.5l5-1.5v5l-5 1z" fill="url(#h)"/>
    <path style="marker:none" d="M2.218 6.548l20.39-4.56c.746-.166 1.424.317 1.525 1.082l1.861 14.14c.101.765-.41 1.553-1.149 1.77L4.632 24.881c-.866.253-1.656-.215-1.766-1.05L.836 8.409c-.11-.835.509-1.665 1.382-1.86" fill="url(#i)" overflow="visible"/>
    <path style="marker:none" d="M2.409 7.995L22.785 3.33l1.884 14.308L4.44 23.435 2.41 7.995" fill="url(#j)" overflow="visible"/>
    <path d="M4.97 19.292L3.578 8.718l18.423-4.284.59 4.487-17.62 10.371" fill="url(#k)"/>
    <path d="M2.409 7.995l.063.483 1.97 14.957 1.035-.297-1.899-14.42 19.325-4.494-.118-.894L2.931 7.876l-.522.12" opacity=".3" fill="#002c64"/>
    <path d="M22 4.434l1.655 12.563-18.305 5.18.127.96 18.745-5.37.447-.129-.06-.447-1.706-12.967-.902.21" opacity=".5" fill="#cdfdff"/>
  </g>
  <path d="M31.25 16.75C30.472 19.767 27.76 22 24.5 22v-4l-8 5.5 8 5.5v-3.5c3.864 0 7-3.136 7-7 0-.605-.106-1.19-.25-1.75z" fill="url(#l)" fill-rule="evenodd" stroke="#00a000"/>
</svg>
