<svg xmlns="http://www.w3.org/2000/svg" xmlns:xlink="http://www.w3.org/1999/xlink" width="16" height="16" version="1">
  <defs>
    <linearGradient id="a">
      <stop offset="0" stop-color="#a33939"/>
      <stop offset="1" stop-color="#e09d88"/>
    </linearGradient>
    <linearGradient id="d">
      <stop offset="0" stop-color="#802020"/>
      <stop offset="1" stop-color="#ffc5a5"/>
    </linearGradient>
    <linearGradient id="c">
      <stop offset="0" stop-color="#eb977d"/>
      <stop offset="1" stop-color="#c34141"/>
    </linearGradient>
    <linearGradient id="b">
      <stop offset="0" stop-color="#e9b17f"/>
      <stop offset="1" stop-color="#ffffeb"/>
    </linearGradient>
    <linearGradient xlink:href="#b" id="e" x1="13" y1="9" x2="13" y2="16.875" gradientUnits="userSpaceOnUse" gradientTransform="matrix(.5 0 0 .5 1.5 -.438)"/>
    <linearGradient xlink:href="#c" id="f" x1="4.591" y1="18.325" x2="14.409" y2="20.125" gradientUnits="userSpaceOnUse" gradientTransform="matrix(1.22222 0 0 .83333 -3.611 -5.77)"/>
    <linearGradient xlink:href="#d" id="i" gradientUnits="userSpaceOnUse" gradientTransform="matrix(.7875 0 0 .46875 -.119 -1.422)" spreadMethod="reflect" x1="9" y1="14.3" x2="5.071" y2="14.3"/>
    <linearGradient xlink:href="#d" id="j" gradientUnits="userSpaceOnUse" gradientTransform="matrix(.7875 0 0 .46875 6.069 -1.422)" spreadMethod="reflect" x1="9" y1="14.3" x2="5.071" y2="14.3"/>
    <linearGradient xlink:href="#d" id="h" gradientUnits="userSpaceOnUse" gradientTransform="matrix(.7875 0 0 .46875 5.506 -4.078)" spreadMethod="reflect" x1="9" y1="14.3" x2="5.071" y2="14.3"/>
    <linearGradient xlink:href="#d" id="g" gradientUnits="userSpaceOnUse" gradientTransform="matrix(.7875 0 0 .46875 .163 -4.078)" spreadMethod="reflect" x1="9" y1="14.3" x2="5.071" y2="14.3"/>
  </defs>
  <path d="M8.656 1.781V3.75c0 .388.882.703 1.969.703 1.087 0 1.969-.315 1.969-.703V1.781H8.656z" style="marker:none" fill="none" stroke="#b13f3f" stroke-width="1.5" stroke-linejoin="round" overflow="visible"/>
  <path style="marker:none" d="M7 11.5a2 .5 0 1 1-4 0 2 .5 0 1 1 4 0z" transform="matrix(.98438 0 0 1.40625 5.703 -14.531)" fill="none" stroke="#b13f3f" stroke-width="1.275" overflow="visible"/>
  <path style="marker:none" d="M3.313 1.781V3.75c0 .388.881.703 1.968.703S7.25 4.138 7.25 3.75V1.781H3.312z" fill="none" stroke="#b13f3f" stroke-width="1.5" stroke-linejoin="round" overflow="visible"/>
  <path transform="matrix(.98438 0 0 1.40625 .36 -14.531)" d="M7 11.5a2 .5 0 1 1-4 0 2 .5 0 1 1 4 0z" style="marker:none" fill="none" stroke="#b13f3f" stroke-width="1.275" overflow="visible"/>
  <path d="M4 3.063l-2 5v7h12v-7l-2-5H4z" fill="none" stroke="#b13f3f" stroke-width="2"/>
  <path style="marker:none" d="M14 8.563H2l2-5.5h8l2 5.5z" fill="url(#e)" fill-rule="evenodd" overflow="visible"/>
  <path style="marker:none" d="M2 8h12v7H2V8z" fill="url(#f)" fill-rule="evenodd" overflow="visible"/>
  <path d="M8 8.5a3.001 3.001 0 0 0 0 6 3.001 3.001 0 0 0 0-6zM6 11h4v1H6v-1z" style="marker:none" opacity=".3" fill="none" stroke="#640000" stroke-width="2" stroke-linecap="square" stroke-linejoin="round" overflow="visible"/>
  <path d="M3.313 1.781V3.75c0 .388.881.703 1.968.703S7.25 4.138 7.25 3.75V1.781H3.312z" style="marker:none" fill="url(#g)" fill-rule="evenodd" overflow="visible"/>
  <path d="M6.969 6.406V4.438H3.03v1.968" style="marker:none" fill="none" stroke="#b13f3f" overflow="visible"/>
  <path d="M8.656 1.781V3.75c0 .388.882.703 1.969.703 1.087 0 1.969-.315 1.969-.703V1.781H8.656z" style="marker:none" fill="url(#h)" fill-rule="evenodd" overflow="visible"/>
  <path style="marker:none" d="M7.25 1.64a1.969.703 0 1 1-3.938 0 1.969.703 0 1 1 3.938 0z" fill="#ffebd9" fill-rule="evenodd" overflow="visible"/>
  <path style="marker:none" d="M7 11.5a2 .5 0 1 1-4 0 2 .5 0 1 1 4 0z" transform="matrix(.98438 0 0 1.40625 .078 -11.875)" fill="none" stroke="#b13f3f" stroke-width=".85" overflow="visible"/>
  <path style="marker:none" d="M3.031 4.438v1.968c0 .388.882.703 1.969.703 1.087 0 1.969-.315 1.969-.703V4.438H3.03z" fill="url(#i)" fill-rule="evenodd" overflow="visible"/>
  <path style="marker:none" d="M13.156 6.406V4.438H9.22v1.968" fill="none" stroke="#b13f3f" overflow="visible"/>
  <path transform="matrix(.98438 0 0 1.40625 6.266 -11.875)" d="M7 11.5a2 .5 0 1 1-4 0 2 .5 0 1 1 4 0z" style="marker:none" fill="none" stroke="#b13f3f" stroke-width=".85" overflow="visible"/>
  <path d="M6.969 4.297a1.969.703 0 1 1-3.938 0 1.969.703 0 1 1 3.938 0zM12.594 1.64a1.969.703 0 1 1-3.938 0 1.969.703 0 1 1 3.938 0z" style="marker:none" fill="#ffebd9" fill-rule="evenodd" overflow="visible"/>
  <path d="M9.219 4.438v1.968c0 .388.882.703 1.969.703 1.086 0 1.968-.315 1.968-.703V4.438H9.22z" style="marker:none" fill="url(#j)" fill-rule="evenodd" overflow="visible"/>
  <path style="marker:none" d="M13.156 4.297a1.969.703 0 1 1-3.937 0 1.969.703 0 1 1 3.937 0z" fill="#ffebd9" fill-rule="evenodd" overflow="visible"/>
  <path style="marker:none" d="M8 8.5a3.001 3.001 0 0 0 0 6 3.001 3.001 0 0 0 0-6zM6 11h4v1H6v-1z" fill="#fff" fill-rule="evenodd" overflow="visible"/>
</svg>
