<svg xmlns="http://www.w3.org/2000/svg" xmlns:xlink="http://www.w3.org/1999/xlink" width="32" height="32" version="1">
  <defs>
    <linearGradient id="a">
      <stop offset="0" stop-color="#dc9b00"/>
      <stop offset=".344" stop-color="#ffcf05"/>
      <stop offset=".688" stop-color="#feff91"/>
      <stop offset="1" stop-color="#fff"/>
    </linearGradient>
    <linearGradient xlink:href="#a" id="b" x1="19" y1="28" x2="13" y2="7" gradientUnits="userSpaceOnUse"/>
  </defs>
  <path d="M16.5 2.5l3.245 4.014 4.984-1.34.266 5.154 4.82 1.846L27 16.5l2.815 4.326-4.82 1.846-.266 5.154-4.984-1.34L16.5 30.5l-3.245-4.014-4.984 1.34-.266-5.154-4.82-1.846L6 16.5l-2.815-4.326 4.82-1.846.266-5.154 4.984 1.34L16.5 2.5z" style="marker:none" fill="none" stroke="#a06900" stroke-width="2" stroke-linecap="square" overflow="visible"/>
  <path style="marker:none" d="M16 2l3.245 4.014 4.984-1.34.266 5.154 4.82 1.846L26.5 16l2.815 4.326-4.82 1.846-.266 5.154-4.984-1.34L16 30l-3.245-4.014-4.984 1.34-.266-5.154-4.82-1.846L5.5 16l-2.815-4.326 4.82-1.846.266-5.154 4.984 1.34L16 2z" fill="url(#b)" fill-rule="evenodd" overflow="visible"/>
</svg>
