<svg xmlns="http://www.w3.org/2000/svg" xmlns:xlink="http://www.w3.org/1999/xlink" width="16" height="16" version="1">
  <defs>
    <linearGradient id="a">
      <stop offset="0" stop-color="#fff"/>
      <stop offset=".307" stop-color="#fffed7"/>
      <stop offset="1" stop-color="#e6c79a"/>
    </linearGradient>
    <linearGradient id="b">
      <stop offset="0" stop-color="#fff"/>
      <stop offset="1" stop-color="#f2dfb2"/>
    </linearGradient>
    <linearGradient id="c">
      <stop offset="0" stop-color="#fbf7e6"/>
      <stop offset="1" stop-color="#d3c2a9"/>
    </linearGradient>
    <linearGradient xlink:href="#a" id="f" x1="8.5" y1="11.5" x2="9" y2="15.5" gradientUnits="userSpaceOnUse"/>
    <linearGradient xlink:href="#b" id="e" x1="11" y1="8" x2="11" y2="13.5" gradientUnits="userSpaceOnUse"/>
    <linearGradient xlink:href="#c" id="d" x1="6.5" y1="3" x2="8.5" y2="10.5" gradientUnits="userSpaceOnUse"/>
  </defs>
  <g fill-rule="evenodd">
    <path style="marker:none" d="M.5 6.5l5.5-5c1-1 3-1 4 0l5.5 5v9H.5v-9z" fill="url(#d)" stroke="#b89a8b" stroke-linecap="square" overflow="visible"/>
    <path d="M15 6.5V14H1V6.5L6 10h4l5-3.5z" fill="#3c0000" opacity=".3"/>
    <path d="M15 7v8H1V7l5 4h4l5-4z" fill="url(#e)"/>
    <path d="M1 15v-.5l5-5c1-1.222 3-1.222 4 0l5 5v.5" fill="#3c0000" opacity=".3"/>
    <path d="M1 15l5-4.5c1-1 3-1 4 0l5 4.5" fill="url(#f)"/>
  </g>
</svg>
