<?xml version="1.0" encoding="UTF-8" standalone="no"?>
<!-- Created with Inkscape (http://www.inkscape.org/) -->
<svg
   xmlns:dc="http://purl.org/dc/elements/1.1/"
   xmlns:cc="http://creativecommons.org/ns#"
   xmlns:rdf="http://www.w3.org/1999/02/22-rdf-syntax-ns#"
   xmlns:svg="http://www.w3.org/2000/svg"
   xmlns="http://www.w3.org/2000/svg"
   xmlns:xlink="http://www.w3.org/1999/xlink"
   xmlns:sodipodi="http://sodipodi.sourceforge.net/DTD/sodipodi-0.dtd"
   xmlns:inkscape="http://www.inkscape.org/namespaces/inkscape"
   width="24"
   height="24"
   id="svg2160"
   sodipodi:version="0.32"
   inkscape:version="0.46"
   version="1.0"
   sodipodi:docbase="F:\Development\Kempelton\File"
   sodipodi:docname="Cut.svg"
   inkscape:output_extension="org.inkscape.output.svg.inkscape"
   inkscape:export-filename="F:\Development\Qute\File\Cut 16.png"
   inkscape:export-xdpi="60"
   inkscape:export-ydpi="60">
  <defs
     id="defs2162">
    <linearGradient
       inkscape:collect="always"
       id="linearGradient3273">
      <stop
         style="stop-color:#000000;stop-opacity:1"
         offset="0"
         id="stop3275" />
      <stop
         style="stop-color:#ffffff;stop-opacity:1"
         offset="1"
         id="stop3277" />
    </linearGradient>
    <linearGradient
       id="linearGradient3443">
      <stop
         style="stop-color:#979797;stop-opacity:1"
         offset="0"
         id="stop3445" />
      <stop
         style="stop-color:#ffffff;stop-opacity:1"
         offset="1"
         id="stop3447" />
    </linearGradient>
    <linearGradient
       inkscape:collect="always"
       id="linearGradient3209">
      <stop
         style="stop-color:#ffffff;stop-opacity:0"
         offset="0"
         id="stop3211" />
      <stop
         style="stop-color:#ffffff;stop-opacity:1"
         offset="1"
         id="stop3213" />
    </linearGradient>
    <linearGradient
       inkscape:collect="always"
       xlink:href="#linearGradient3443"
       id="linearGradient3267"
       gradientUnits="userSpaceOnUse"
       gradientTransform="matrix(0.6427876,-0.7660444,0.7660444,0.6427876,0.3890195,14.512549)"
       spreadMethod="reflect"
       x1="4"
       y1="6"
       x2="14"
       y2="6" />
    <linearGradient
       inkscape:collect="always"
       xlink:href="#linearGradient3273"
       id="linearGradient3279"
       x1="12.5"
       y1="13"
       x2="11.5"
       y2="10.5"
       gradientUnits="userSpaceOnUse" />
    <linearGradient
       inkscape:collect="always"
       xlink:href="#linearGradient3209"
       id="linearGradient2451"
       gradientUnits="userSpaceOnUse"
       gradientTransform="matrix(0.9263568,-1.0761307e-2,-1.0761458e-2,0.9636353,0.9834583,0.2474312)"
       x1="5.9496107"
       y1="24.689728"
       x2="6.0708532"
       y2="10.23724" />
  </defs>
  <sodipodi:namedview
     id="base"
     pagecolor="#ffffff"
     bordercolor="#666666"
     borderopacity="1.0"
     inkscape:pageopacity="0.0"
     inkscape:pageshadow="2"
     inkscape:zoom="24.89016"
     inkscape:cx="5.4414527"
     inkscape:cy="9.690844"
     inkscape:current-layer="layer1"
     showgrid="true"
     inkscape:grid-bbox="true"
     inkscape:document-units="px"
     width="24px"
     height="24px"
     gridtolerance="10000"
     objecttolerance="50"
     inkscape:object-nodes="false"
     inkscape:grid-points="true"
     inkscape:window-width="1158"
     inkscape:window-height="1041"
     inkscape:window-x="293"
     inkscape:window-y="220"
     showguides="true"
     inkscape:guide-bbox="true">
    <inkscape:grid
       id="GridFromPre046Settings"
       type="xygrid"
       originx="0px"
       originy="0px"
       spacingx="0.5px"
       spacingy="0.5px"
       color="#0000ff"
       empcolor="#0000ff"
       opacity="0.2"
       empopacity="0.4"
       empspacing="4" />
  </sodipodi:namedview>
  <metadata
     id="metadata2165">
    <rdf:RDF>
      <cc:Work
         rdf:about="">
        <dc:format>image/svg+xml</dc:format>
        <dc:type
           rdf:resource="http://purl.org/dc/dcmitype/StillImage" />
        <dc:creator>
          <cc:Agent>
            <dc:title>Arvid Axelsson</dc:title>
          </cc:Agent>
        </dc:creator>
        <cc:license
           rdf:resource="http://creativecommons.org/licenses/by-sa/3.0/" />
      </cc:Work>
      <cc:License
         rdf:about="http://creativecommons.org/licenses/by-sa/3.0/">
        <cc:permits
           rdf:resource="http://creativecommons.org/ns#Reproduction" />
        <cc:permits
           rdf:resource="http://creativecommons.org/ns#Distribution" />
        <cc:requires
           rdf:resource="http://creativecommons.org/ns#Notice" />
        <cc:requires
           rdf:resource="http://creativecommons.org/ns#Attribution" />
        <cc:permits
           rdf:resource="http://creativecommons.org/ns#DerivativeWorks" />
        <cc:requires
           rdf:resource="http://creativecommons.org/ns#ShareAlike" />
      </cc:License>
    </rdf:RDF>
  </metadata>
  <g
     id="layer1"
     inkscape:label="Layer 1"
     inkscape:groupmode="layer">
    <use
       x="0"
       y="0"
       xlink:href="#path3368"
       id="use3496"
       transform="matrix(-1,0,0,1,24.054379,0)"
       width="24"
       height="24"
       style="opacity:1" />
    <path
       sodipodi:nodetypes="ccscc"
       id="path3368"
       d="M 8,14 L 10,16.5 L 18,5.5 C 20.079502,2.6406852 18.5,1 18.5,1 L 8,14 z"
       style="fill:#646464;fill-opacity:1;fill-rule:evenodd;stroke:#5a5a5a;stroke-width:1;stroke-linecap:butt;stroke-linejoin:miter;marker:none;marker-start:none;marker-mid:none;marker-end:none;stroke-miterlimit:4;stroke-dasharray:none;stroke-dashoffset:0;stroke-opacity:1;visibility:visible;display:inline;overflow:visible;enable-background:accumulate" />
    <use
       x="0"
       y="0"
       xlink:href="#path3441"
       id="use3248"
       transform="matrix(-1,0,0,1,24,0)"
       width="24"
       height="24" />
    <path
       style="fill:url(#linearGradient3267);fill-opacity:1;fill-rule:evenodd;stroke:none;stroke-width:0.75;stroke-linecap:butt;stroke-linejoin:round;marker:none;marker-start:none;marker-mid:none;marker-end:none;stroke-miterlimit:4;stroke-dasharray:none;stroke-dashoffset:0;stroke-opacity:1;visibility:visible;display:inline;overflow:visible;enable-background:accumulate"
       d="M 7.5,14 L 9.5,16.5 L 17.5,5.5 C 19.579502,2.6406852 18,1 18,1 L 7.5,14 z"
       id="path3441"
       sodipodi:nodetypes="ccscc" />
    <path
       sodipodi:type="arc"
       style="opacity:1;fill:url(#linearGradient3279);fill-opacity:1;fill-rule:nonzero;stroke:none;stroke-width:1.50000000000000000;stroke-linecap:butt;stroke-linejoin:miter;marker:none;marker-start:none;marker-mid:none;marker-end:none;stroke-miterlimit:4;stroke-dasharray:none;stroke-dashoffset:0;stroke-opacity:1;visibility:visible;display:inline;overflow:visible;enable-background:accumulate"
       id="path3271"
       sodipodi:cx="12"
       sodipodi:cy="11"
       sodipodi:rx="1.5"
       sodipodi:ry="1.5"
       d="M 13.5,11 A 1.5,1.5 0 1 1 10.5,11 A 1.5,1.5 0 1 1 13.5,11 z"
       transform="translate(0,-0.5)" />
    <path
       style="opacity:1;fill:#3f3fb1;fill-opacity:1;fill-rule:evenodd;stroke:none;stroke-width:3.5;stroke-linecap:butt;stroke-linejoin:round;marker:none;stroke-miterlimit:4;stroke-dasharray:none;stroke-dashoffset:0;stroke-opacity:1;visibility:visible;display:inline;overflow:visible;enable-background:accumulate"
       d="M 8.0723331,12.646824 C 6.016256,12.0959 3.6487045,14.170317 2.824984,17.244485 C 2.0012637,20.318651 3.0144143,23.298926 5.0704913,23.84985 C 7.1265684,24.400774 9.4941209,22.326356 10.31784,19.252189 C 11.141561,16.178023 10.12841,13.197748 8.0723331,12.646824 z M 7.1967957,15.914373 C 8.0704255,16.148462 8.4824235,17.360392 8.1324237,18.666609 C 7.7824242,19.972825 6.8196582,20.816389 5.9460286,20.582301 C 5.072399,20.348212 4.6604005,19.136282 5.0104006,17.830065 C 5.3604001,16.523849 6.3231662,15.680285 7.1967957,15.914373 z"
       id="path3227" />
    <use
       x="0"
       y="0"
       xlink:href="#path3227"
       id="use3286"
       transform="matrix(-1,0,0,1,24,0)"
       width="24"
       height="24" />
    <path
       style="opacity:1;fill:url(#linearGradient2451);fill-opacity:1;fill-rule:evenodd;stroke:none;stroke-width:3.5;stroke-linecap:butt;stroke-linejoin:round;marker:none;stroke-miterlimit:4;stroke-dasharray:none;stroke-dashoffset:0;stroke-opacity:1;visibility:visible;display:inline;overflow:visible;enable-background:accumulate"
       d="M 7.2977638,12.820154 C 6.6970086,12.841637 6.0543973,13.112885 5.4359706,13.654743 C 4.6114012,14.377221 3.8649097,15.526442 3.4890399,16.929208 C 3.1131696,18.331975 3.1803171,19.714659 3.5331766,20.752627 C 3.8860356,21.790596 4.5113904,22.454099 5.2775214,22.659384 C 6.0436527,22.864668 6.8930461,22.600773 7.7176153,21.878295 C 8.5421845,21.155818 9.2886762,20.006597 9.6645459,18.60383 C 10.040416,17.201064 9.9732686,15.818379 9.6204091,14.780412 C 9.26755,13.742443 8.6421955,13.078939 7.8760646,12.873654 C 7.6845317,12.822333 7.4980156,12.812993 7.2977638,12.820154 z M 6.8716326,14.691905 C 7.0409757,14.689774 7.2201679,14.700027 7.3920359,14.746078 C 8.0795083,14.930287 8.5702927,15.484786 8.7947137,16.14494 C 9.0191344,16.805096 9.0082205,17.591355 8.7987767,18.373011 C 8.5893328,19.154667 8.2019731,19.823447 7.6775415,20.282947 C 7.15311,20.742446 6.4490223,20.971166 5.76155,20.78696 C 5.0740779,20.602751 4.5832929,20.048252 4.3588717,19.388099 C 4.1344512,18.727944 4.1453647,17.941685 4.3548089,17.160029 C 4.5642526,16.378372 4.9516128,15.709591 5.4760445,15.250091 C 5.73826,15.020342 6.0509075,14.856446 6.3788331,14.757849 C 6.5427958,14.708551 6.7022894,14.694037 6.8716326,14.691905 z"
       id="path3288" />
    <use
       x="0"
       y="0"
       xlink:href="#path3288"
       id="use3305"
       transform="matrix(-1,0,0,1,24,0)"
       width="24"
       height="24" />
  </g>
</svg>
