<?xml version="1.0" encoding="UTF-8" standalone="no"?>
<!-- Created with Inkscape (http://www.inkscape.org/) -->
<svg
   xmlns:dc="http://purl.org/dc/elements/1.1/"
   xmlns:cc="http://creativecommons.org/ns#"
   xmlns:rdf="http://www.w3.org/1999/02/22-rdf-syntax-ns#"
   xmlns:svg="http://www.w3.org/2000/svg"
   xmlns="http://www.w3.org/2000/svg"
   xmlns:xlink="http://www.w3.org/1999/xlink"
   xmlns:sodipodi="http://sodipodi.sourceforge.net/DTD/sodipodi-0.dtd"
   xmlns:inkscape="http://www.inkscape.org/namespaces/inkscape"
   width="32"
   height="32"
   id="svg2"
   sodipodi:version="0.32"
   inkscape:version="0.46"
   version="1.0"
   sodipodi:docbase="F:\Development\Kempelton\Miscellaneous"
   sodipodi:docname="Extension.svg"
   inkscape:output_extension="org.inkscape.output.svg.inkscape"
   inkscape:export-filename="F:\Development\Qute\Add-ons\Extensions.png"
   inkscape:export-xdpi="90"
   inkscape:export-ydpi="90">
  <sodipodi:namedview
     id="base"
     pagecolor="#ffffff"
     bordercolor="#666666"
     borderopacity="1.0"
     gridtolerance="10000"
     guidetolerance="10"
     objecttolerance="10"
     inkscape:pageopacity="0.0"
     inkscape:pageshadow="2"
     inkscape:zoom="13.090242"
     inkscape:cx="17.907189"
     inkscape:cy="14.907621"
     inkscape:document-units="px"
     inkscape:current-layer="layer1"
     width="32px"
     height="32px"
     showgrid="true"
     inkscape:window-width="1186"
     inkscape:window-height="1142"
     inkscape:window-x="173"
     inkscape:window-y="245"
     inkscape:grid-points="true"
     inkscape:object-nodes="true">
    <inkscape:grid
       enabled="true"
       visible="true"
       empspacing="4"
       empopacity="0.4"
       opacity="0.2"
       empcolor="#0000ff"
       color="#0000ff"
       spacingy="1px"
       spacingx="1px"
       originy="0px"
       originx="0px"
       type="xygrid"
       id="GridFromPre046Settings" />
  </sodipodi:namedview>
  <defs
     id="defs4">
    <linearGradient
       id="linearGradient3304">
      <stop
         id="stop3306"
         offset="0"
         style="stop-color:#3888cc;stop-opacity:1" />
      <stop
         style="stop-color:#b9ebff;stop-opacity:1"
         offset="0.65257859"
         id="stop3308" />
      <stop
         id="stop3310"
         offset="1"
         style="stop-color:#ebfcff;stop-opacity:1" />
    </linearGradient>
    <linearGradient
       id="linearGradient3298">
      <stop
         style="stop-color:#1d71ab;stop-opacity:1"
         offset="0"
         id="stop3300" />
      <stop
         style="stop-color:#8ed1ee;stop-opacity:1"
         offset="1"
         id="stop3302" />
    </linearGradient>
    <linearGradient
       id="linearGradient3290">
      <stop
         style="stop-color:#115b8f;stop-opacity:1;"
         offset="0"
         id="stop3292" />
      <stop
         style="stop-color:#3ba6de;stop-opacity:1;"
         offset="1"
         id="stop3294" />
    </linearGradient>
    <linearGradient
       id="linearGradient3303">
      <stop
         style="stop-color:#3b9bde;stop-opacity:1;"
         offset="0"
         id="stop3305" />
      <stop
         id="stop3309"
         offset="0.5"
         style="stop-color:#a1d8ef;stop-opacity:1;" />
      <stop
         style="stop-color:#e1faff;stop-opacity:1;"
         offset="1"
         id="stop3307" />
    </linearGradient>
    <linearGradient
       id="linearGradient4109">
      <stop
         id="stop4111"
         offset="0"
         style="stop-color:#004578;stop-opacity:1;" />
      <stop
         style="stop-color:#0d5c93;stop-opacity:1;"
         offset="0.5"
         id="stop3311" />
      <stop
         id="stop4113"
         offset="1"
         style="stop-color:#a1d9ef;stop-opacity:1;" />
    </linearGradient>
    <linearGradient
       id="linearGradient4101">
      <stop
         id="stop4103"
         offset="0"
         style="stop-color:#002f50;stop-opacity:1;" />
      <stop
         id="stop4105"
         offset="1"
         style="stop-color:#3a9ade;stop-opacity:1;" />
    </linearGradient>
    <linearGradient
       inkscape:collect="always"
       xlink:href="#linearGradient3304"
       id="linearGradient6694"
       gradientUnits="userSpaceOnUse"
       spreadMethod="pad"
       x1="25"
       y1="23"
       x2="6"
       y2="5"
       gradientTransform="translate(-1,0)" />
    <linearGradient
       inkscape:collect="always"
       xlink:href="#linearGradient3303"
       id="linearGradient6837"
       gradientUnits="userSpaceOnUse"
       spreadMethod="pad"
       x1="26"
       y1="25"
       x2="4"
       y2="14"
       gradientTransform="translate(-1,0)" />
    <linearGradient
       inkscape:collect="always"
       xlink:href="#linearGradient3303"
       id="linearGradient6843"
       gradientUnits="userSpaceOnUse"
       spreadMethod="pad"
       x1="26"
       y1="25"
       x2="4"
       y2="14"
       gradientTransform="translate(-1,0)" />
    <linearGradient
       inkscape:collect="always"
       xlink:href="#linearGradient3303"
       id="linearGradient6846"
       gradientUnits="userSpaceOnUse"
       spreadMethod="pad"
       x1="26"
       y1="25"
       x2="4"
       y2="14"
       gradientTransform="translate(-1,0)" />
    <linearGradient
       inkscape:collect="always"
       xlink:href="#linearGradient3303"
       id="linearGradient6861"
       gradientUnits="userSpaceOnUse"
       spreadMethod="pad"
       x1="26"
       y1="25"
       x2="4"
       y2="14"
       gradientTransform="translate(-1,0)" />
    <linearGradient
       inkscape:collect="always"
       xlink:href="#linearGradient3303"
       id="linearGradient6864"
       gradientUnits="userSpaceOnUse"
       spreadMethod="pad"
       x1="26"
       y1="25"
       x2="4"
       y2="14"
       gradientTransform="translate(-1,0)" />
    <linearGradient
       inkscape:collect="always"
       xlink:href="#linearGradient3303"
       id="linearGradient6873"
       gradientUnits="userSpaceOnUse"
       spreadMethod="pad"
       x1="26"
       y1="25"
       x2="4"
       y2="14"
       gradientTransform="translate(-1,0)" />
    <linearGradient
       inkscape:collect="always"
       xlink:href="#linearGradient3303"
       id="linearGradient6876"
       gradientUnits="userSpaceOnUse"
       spreadMethod="pad"
       x1="26"
       y1="25"
       x2="4"
       y2="14"
       gradientTransform="translate(-1,0)" />
    <linearGradient
       inkscape:collect="always"
       xlink:href="#linearGradient3303"
       id="linearGradient6879"
       gradientUnits="userSpaceOnUse"
       spreadMethod="pad"
       x1="26"
       y1="25"
       x2="4"
       y2="14"
       gradientTransform="translate(-1,0)" />
    <linearGradient
       inkscape:collect="always"
       xlink:href="#linearGradient3303"
       id="linearGradient6885"
       gradientUnits="userSpaceOnUse"
       spreadMethod="pad"
       x1="26"
       y1="25"
       x2="4"
       y2="14"
       gradientTransform="translate(-1,0)" />
    <linearGradient
       inkscape:collect="always"
       xlink:href="#linearGradient3303"
       id="linearGradient6888"
       gradientUnits="userSpaceOnUse"
       spreadMethod="pad"
       x1="26"
       y1="25"
       x2="4"
       y2="14"
       gradientTransform="translate(-1,0)" />
    <linearGradient
       inkscape:collect="always"
       xlink:href="#linearGradient3303"
       id="linearGradient6891"
       gradientUnits="userSpaceOnUse"
       spreadMethod="pad"
       x1="26"
       y1="25"
       x2="4"
       y2="14"
       gradientTransform="translate(-1,0)" />
    <linearGradient
       inkscape:collect="always"
       xlink:href="#linearGradient3303"
       id="linearGradient6894"
       gradientUnits="userSpaceOnUse"
       spreadMethod="pad"
       x1="26"
       y1="25"
       x2="4"
       y2="14"
       gradientTransform="translate(-1,0)" />
    <linearGradient
       inkscape:collect="always"
       xlink:href="#linearGradient3303"
       id="linearGradient6903"
       gradientUnits="userSpaceOnUse"
       spreadMethod="pad"
       x1="26"
       y1="25"
       x2="4"
       y2="14"
       gradientTransform="translate(-1,0)" />
    <linearGradient
       inkscape:collect="always"
       xlink:href="#linearGradient3303"
       id="linearGradient6906"
       gradientUnits="userSpaceOnUse"
       spreadMethod="pad"
       x1="26"
       y1="25"
       x2="4"
       y2="14"
       gradientTransform="translate(-1,0)" />
    <linearGradient
       inkscape:collect="always"
       xlink:href="#linearGradient3303"
       id="linearGradient6909"
       gradientUnits="userSpaceOnUse"
       spreadMethod="pad"
       x1="26"
       y1="25"
       x2="4"
       y2="14"
       gradientTransform="translate(-1,0)" />
    <linearGradient
       inkscape:collect="always"
       xlink:href="#linearGradient3303"
       id="linearGradient6912"
       gradientUnits="userSpaceOnUse"
       spreadMethod="pad"
       x1="26"
       y1="25"
       x2="4"
       y2="14"
       gradientTransform="translate(-1,0)" />
    <linearGradient
       inkscape:collect="always"
       xlink:href="#linearGradient3298"
       id="linearGradient6915"
       gradientUnits="userSpaceOnUse"
       spreadMethod="pad"
       x1="4"
       y1="30"
       x2="4"
       y2="6"
       gradientTransform="translate(-1,0)" />
    <linearGradient
       inkscape:collect="always"
       xlink:href="#linearGradient4101"
       id="linearGradient6927"
       x1="18"
       y1="21"
       x2="16"
       y2="28"
       gradientUnits="userSpaceOnUse" />
    <linearGradient
       inkscape:collect="always"
       xlink:href="#linearGradient4109"
       id="linearGradient6942"
       x1="15"
       y1="3"
       x2="15"
       y2="10"
       gradientUnits="userSpaceOnUse" />
    <linearGradient
       inkscape:collect="always"
       xlink:href="#linearGradient4109"
       id="linearGradient3288"
       x1="23.260105"
       y1="9.5498838"
       x2="29.598352"
       y2="9.5498838"
       gradientUnits="userSpaceOnUse" />
    <linearGradient
       inkscape:collect="always"
       xlink:href="#linearGradient3290"
       id="linearGradient3296"
       x1="28"
       y1="27"
       x2="28"
       y2="-0.018512173"
       gradientUnits="userSpaceOnUse" />
  </defs>
  <metadata
     id="metadata7">
    <rdf:RDF>
      <cc:Work
         rdf:about="">
        <dc:format>image/svg+xml</dc:format>
        <dc:type
           rdf:resource="http://purl.org/dc/dcmitype/StillImage" />
        <cc:license
           rdf:resource="http://creativecommons.org/licenses/by-sa/3.0/" />
        <dc:creator>
          <cc:Agent>
            <dc:title>Arvid Axelsson</dc:title>
          </cc:Agent>
        </dc:creator>
      </cc:Work>
      <cc:License
         rdf:about="http://creativecommons.org/licenses/by-sa/3.0/">
        <cc:permits
           rdf:resource="http://creativecommons.org/ns#Reproduction" />
        <cc:permits
           rdf:resource="http://creativecommons.org/ns#Distribution" />
        <cc:requires
           rdf:resource="http://creativecommons.org/ns#Notice" />
        <cc:requires
           rdf:resource="http://creativecommons.org/ns#Attribution" />
        <cc:permits
           rdf:resource="http://creativecommons.org/ns#DerivativeWorks" />
        <cc:requires
           rdf:resource="http://creativecommons.org/ns#ShareAlike" />
      </cc:License>
    </rdf:RDF>
  </metadata>
  <g
     style="display:none"
     id="layer3"
     inkscape:groupmode="layer">
    <rect
       y="0"
       x="-5"
       height="34"
       width="42"
       id="rect3193"
       style="opacity:1;fill:#003878;fill-opacity:1;fill-rule:evenodd;stroke:none;stroke-width:2;stroke-linecap:round;stroke-linejoin:round;marker:none;marker-start:none;marker-mid:none;marker-end:none;stroke-miterlimit:4;stroke-dasharray:none;stroke-dashoffset:0;stroke-opacity:1;visibility:visible;display:inline;overflow:visible;enable-background:accumulate" />
  </g>
  <g
     style="display:inline"
     id="layer1"
     inkscape:groupmode="layer"
     inkscape:label="Layer 1">
    <path
       sodipodi:nodetypes="ccccc"
       id="path3160"
       d="M 2,40 L 2,66 L 30,59 L 30,36 L 2,40 z"
       style="fill:#8e8e8e;fill-opacity:1;fill-rule:evenodd;stroke:none;stroke-width:1px;stroke-linecap:butt;stroke-linejoin:miter;stroke-opacity:1" />
    <g
       id="g6503"
       style="fill:none;stroke:url(#linearGradient3296);stroke-width:2;stroke-linejoin:round;stroke-miterlimit:4;stroke-dasharray:none;stroke-opacity:1"
       transform="translate(-1,0)">
      <g
         style="fill:none;fill-opacity:1;fill-rule:evenodd;stroke:url(#linearGradient3296);stroke-width:2;stroke-linecap:butt;stroke-linejoin:round;stroke-miterlimit:4;stroke-dasharray:none;stroke-opacity:1"
         id="g6505">
        <path
           d="M 3.9999995,5 C 3.9999995,5 3.9999995,31 3.9999995,31 L 2.0027809,30.351064 C 2.0027809,30.351064 2.0027809,4.3510643 2.0027809,4.3510643 L 3.9999995,5 z"
           id="path6507"
           style="fill:none;stroke:url(#linearGradient3296);stroke-width:2;stroke-linejoin:round;stroke-miterlimit:4;stroke-dasharray:none;stroke-opacity:1" />
        <path
           d="M 3.9999995,31 C 3.9999995,31 13.327039,28.66824 13.327039,28.66824 L 11.32982,28.019304 C 11.32982,28.019304 2.0027809,30.351064 2.0027809,30.351064 L 3.9999995,31 z"
           id="path6509"
           style="fill:none;stroke:url(#linearGradient3296);stroke-width:2;stroke-linejoin:round;stroke-miterlimit:4;stroke-dasharray:none;stroke-opacity:1" />
        <path
           d="M 13.327039,28.66824 C 13.798115,26.471288 11.423521,26.712472 11.423521,24.943349 L 9.4263024,24.294413 C 9.4263024,26.063536 11.800896,25.822352 11.32982,28.019304 L 13.327039,28.66824 z"
           id="path6511"
           style="fill:none;stroke:url(#linearGradient3296);stroke-width:2;stroke-linejoin:round;stroke-miterlimit:4;stroke-dasharray:none;stroke-opacity:1" />
        <path
           d="M 11.423521,24.943349 C 11.423521,22.334671 13.342143,21.373073 15.663551,20.865265 L 13.666332,20.216329 C 11.344924,20.724137 9.4263024,21.685735 9.4263024,24.294413 L 11.423521,24.943349 z"
           id="path6513"
           style="fill:none;stroke:url(#linearGradient3296);stroke-width:2;stroke-linejoin:round;stroke-miterlimit:4;stroke-dasharray:none;stroke-opacity:1" />
        <path
           d="M 15.663551,20.865265 C 16.747302,20.628194 17.726398,20.532567 18.454725,20.769215 L 16.457506,20.12028 C 15.729179,19.883632 14.750084,19.979259 13.666332,20.216329 L 15.663551,20.865265 z"
           id="path6515"
           style="fill:none;stroke:url(#linearGradient3296);stroke-width:2;stroke-linejoin:round;stroke-miterlimit:4;stroke-dasharray:none;stroke-opacity:1" />
        <path
           d="M 18.454725,20.769215 C 19.255745,21.029482 19.753442,21.691662 19.753442,23.009617 L 17.756223,22.360681 C 17.756223,21.042726 17.258527,20.380547 16.457506,20.12028 L 18.454725,20.769215 z"
           id="path6517"
           style="fill:none;stroke:url(#linearGradient3296);stroke-width:2;stroke-linejoin:round;stroke-miterlimit:4;stroke-dasharray:none;stroke-opacity:1" />
        <path
           d="M 19.753442,23.009617 C 19.753442,24.657694 17.499337,25.579029 17.953734,27.511566 L 15.956515,26.86263 C 15.502118,24.930093 17.756223,24.008758 17.756223,22.360681 L 19.753442,23.009617 z"
           id="path6519"
           style="fill:none;stroke:url(#linearGradient3296);stroke-width:2;stroke-linejoin:round;stroke-miterlimit:4;stroke-dasharray:none;stroke-opacity:1" />
        <path
           d="M 17.953734,27.511566 C 17.953734,27.511566 26.257325,25.435669 26.257325,25.435669 L 24.260106,24.786733 C 24.260106,24.786733 15.956515,26.86263 15.956515,26.86263 L 17.953734,27.511566 z"
           id="path6521"
           style="fill:none;stroke:url(#linearGradient3296);stroke-width:2;stroke-linejoin:round;stroke-miterlimit:4;stroke-dasharray:none;stroke-opacity:1" />
        <path
           d="M 26.257325,25.435669 C 26.257325,25.435669 26.257325,16.087951 26.257325,16.087951 L 24.260106,15.439015 C 24.260106,15.439015 24.260106,24.786733 24.260106,24.786733 L 26.257325,25.435669 z"
           id="path6523"
           style="fill:none;stroke:url(#linearGradient3296);stroke-width:2;stroke-linejoin:round;stroke-miterlimit:4;stroke-dasharray:none;stroke-opacity:1" />
        <path
           d="M 26.257325,16.087951 C 26.257325,16.087951 26.257325,16.087951 26.257325,16.087951 L 24.260106,15.439015 C 24.260106,15.439015 24.260106,15.439015 24.260106,15.439015 L 26.257325,16.087951 z"
           id="path6525"
           style="fill:none;stroke:url(#linearGradient3296);stroke-width:2;stroke-linejoin:round;stroke-miterlimit:4;stroke-dasharray:none;stroke-opacity:1" />
        <path
           d="M 26.257325,16.087951 C 26.662016,15.885756 26.986858,15.871622 27.265766,15.962244 L 25.268548,15.313309 C 24.98964,15.222686 24.664798,15.23682 24.260106,15.439015 L 26.257325,16.087951 z"
           id="path6527"
           style="fill:none;stroke:url(#linearGradient3296);stroke-width:2;stroke-linejoin:round;stroke-miterlimit:4;stroke-dasharray:none;stroke-opacity:1" />
        <path
           d="M 27.265766,15.962244 C 28.013618,16.205236 28.431222,17.201395 29.172414,17.344787 L 27.175195,16.695852 C 26.434004,16.552459 26.016399,15.5563 25.268548,15.313309 L 27.265766,15.962244 z"
           id="path6529"
           style="fill:none;stroke:url(#linearGradient3296);stroke-width:2;stroke-linejoin:round;stroke-miterlimit:4;stroke-dasharray:none;stroke-opacity:1" />
        <path
           d="M 29.172414,17.344787 C 29.296774,17.368846 29.430243,17.368898 29.57591,17.337359 L 27.578691,16.688423 C 27.433024,16.719963 27.299555,16.71991 27.175195,16.695852 L 29.172414,17.344787 z"
           id="path6531"
           style="fill:none;stroke:url(#linearGradient3296);stroke-width:2;stroke-linejoin:round;stroke-miterlimit:4;stroke-dasharray:none;stroke-opacity:1" />
        <path
           d="M 29.57591,17.337359 C 31.586919,16.901939 32,14.8805 32,12.5 L 30.002781,11.851064 C 30.002781,14.231564 29.5897,16.253003 27.578691,16.688423 L 29.57591,17.337359 z"
           id="path6533"
           style="fill:none;stroke:url(#linearGradient3296);stroke-width:2;stroke-linejoin:round;stroke-miterlimit:4;stroke-dasharray:none;stroke-opacity:1" />
        <path
           d="M 32,12.5 C 32,10.594544 31.735335,9.0231162 30.598352,8.6536883 L 28.601134,8.0047526 C 29.738116,8.3741806 30.002781,9.9456079 30.002781,11.851064 L 32,12.5 z"
           id="path6535"
           style="fill:none;stroke:url(#linearGradient3296);stroke-width:2;stroke-linejoin:round;stroke-miterlimit:4;stroke-dasharray:none;stroke-opacity:1" />
        <path
           d="M 30.598352,8.6536883 C 30.314895,8.5615873 29.977219,8.5441954 29.57591,8.614962 L 27.578691,7.9660263 C 27.980001,7.8952597 28.317676,7.9126517 28.601134,8.0047526 L 30.598352,8.6536883 z"
           id="path6537"
           style="fill:none;stroke:url(#linearGradient3296);stroke-width:2;stroke-linejoin:round;stroke-miterlimit:4;stroke-dasharray:none;stroke-opacity:1" />
        <path
           d="M 29.57591,8.614962 C 28.190571,8.859252 27.929203,11.346608 26.257325,11.1681 L 24.260106,10.519164 C 25.931984,10.697672 26.193352,8.2103163 27.578691,7.9660263 L 29.57591,8.614962 z"
           id="path6539"
           style="fill:none;stroke:url(#linearGradient3296);stroke-width:2;stroke-linejoin:round;stroke-miterlimit:4;stroke-dasharray:none;stroke-opacity:1" />
        <path
           d="M 26.257325,11.1681 C 26.257325,11.1681 26.257325,1.820382 26.257325,1.820382 L 24.260106,1.1714463 C 24.260106,1.1714463 24.260106,10.519164 24.260106,10.519164 L 26.257325,11.1681 z"
           id="path6541"
           style="fill:none;stroke:url(#linearGradient3296);stroke-width:2;stroke-linejoin:round;stroke-miterlimit:4;stroke-dasharray:none;stroke-opacity:1" />
        <path
           d="M 26.257325,1.820382 C 26.257325,1.820382 26.257325,1.820382 26.257325,1.820382 L 24.260106,1.1714463 C 24.260106,1.1714463 24.260106,1.1714463 24.260106,1.1714463 L 26.257325,1.820382 z"
           id="path6543"
           style="fill:none;stroke:url(#linearGradient3296);stroke-width:2;stroke-linejoin:round;stroke-miterlimit:4;stroke-dasharray:none;stroke-opacity:1" />
        <path
           d="M 26.257325,1.820382 C 26.257325,1.820382 17.953734,3.006609 17.953734,3.006609 L 15.956515,2.3576733 C 15.956515,2.3576733 24.260106,1.1714463 24.260106,1.1714463 L 26.257325,1.820382 z"
           id="path6545"
           style="fill:none;stroke:url(#linearGradient3296);stroke-width:2;stroke-linejoin:round;stroke-miterlimit:4;stroke-dasharray:none;stroke-opacity:1" />
        <path
           d="M 17.953734,3.006609 C 17.499337,5.11766 19.753442,5.153453 19.753442,6.80153 L 17.756223,6.1525943 C 17.756223,4.5045173 15.502118,4.4687243 15.956515,2.3576733 L 17.953734,3.006609 z"
           id="path6547"
           style="fill:none;stroke:url(#linearGradient3296);stroke-width:2;stroke-linejoin:round;stroke-miterlimit:4;stroke-dasharray:none;stroke-opacity:1" />
        <path
           d="M 19.753442,6.80153 C 19.753442,9.317836 17.939221,10.156415 15.663551,10.552626 L 13.666332,9.9036903 C 15.942002,9.5074793 17.756223,8.6689003 17.756223,6.1525943 L 19.753442,6.80153 z"
           id="path6549"
           style="fill:none;stroke:url(#linearGradient3296);stroke-width:2;stroke-linejoin:round;stroke-miterlimit:4;stroke-dasharray:none;stroke-opacity:1" />
        <path
           d="M 15.663551,10.552626 C 14.60073,10.73767 13.622338,10.794426 12.873847,10.551227 L 10.876628,9.9022912 C 11.625119,10.145491 12.603511,10.088735 13.666332,9.9036903 L 15.663551,10.552626 z"
           id="path6551"
           style="fill:none;stroke:url(#linearGradient3296);stroke-width:2;stroke-linejoin:round;stroke-miterlimit:4;stroke-dasharray:none;stroke-opacity:1" />
        <path
           d="M 12.873847,10.551227 C 11.987487,10.263231 11.423521,9.5546024 11.423521,8.140267 L 9.4263024,7.4913313 C 9.4263024,8.9056668 9.9902685,9.6142955 10.876628,9.9022912 L 12.873847,10.551227 z"
           id="path6553"
           style="fill:none;stroke:url(#linearGradient3296);stroke-width:2;stroke-linejoin:round;stroke-miterlimit:4;stroke-dasharray:none;stroke-opacity:1" />
        <path
           d="M 11.423521,8.140267 C 11.423521,6.371144 13.798115,5.679453 13.327039,3.667566 L 11.32982,3.0186303 C 11.800896,5.0305173 9.4263024,5.7222083 9.4263024,7.4913313 L 11.423521,8.140267 z"
           id="path6555"
           style="fill:none;stroke:url(#linearGradient3296);stroke-width:2;stroke-linejoin:round;stroke-miterlimit:4;stroke-dasharray:none;stroke-opacity:1" />
        <path
           d="M 13.327039,3.667566 C 13.327039,3.667566 3.9999995,5 3.9999995,5 L 2.0027809,4.3510643 C 2.0027809,4.3510643 11.32982,3.0186303 11.32982,3.0186303 L 13.327039,3.667566 z"
           id="path6557"
           style="fill:none;stroke:url(#linearGradient3296);stroke-width:2;stroke-linejoin:round;stroke-miterlimit:4;stroke-dasharray:none;stroke-opacity:1" />
        <path
           d="M 3.9999995,5 C 3.9999995,5 3.9999995,5 3.9999995,5 L 2.0027809,4.3510643 C 2.0027809,4.3510643 2.0027809,4.3510643 2.0027809,4.3510643 L 3.9999995,5 z"
           id="path6559"
           style="fill:none;stroke:url(#linearGradient3296);stroke-width:2;stroke-linejoin:round;stroke-miterlimit:4;stroke-dasharray:none;stroke-opacity:1" />
      </g>
      <path
         id="path6561"
         d="M 3.9999995,5 C 3.9999995,5 3.9999995,31 3.9999995,31 C 3.9999995,31 13.327039,28.66824 13.327039,28.66824 C 13.798115,26.471288 11.423521,26.712472 11.423521,24.943349 C 11.423521,22.334671 13.342143,21.373073 15.663551,20.865265 C 17.939221,20.367462 19.753442,20.493312 19.753442,23.009617 C 19.753442,24.657694 17.499337,25.579029 17.953734,27.511566 C 17.953734,27.511566 26.257325,25.435669 26.257325,25.435669 C 26.257325,25.435669 26.257325,16.087951 26.257325,16.087951 C 27.929203,15.252634 28.238274,17.626981 29.57591,17.337359 C 31.586919,16.901939 32,14.8805 32,12.5 C 32,10.1195 31.586919,8.260342 29.57591,8.614962 C 28.190571,8.859252 27.929203,11.346608 26.257325,11.1681 C 26.257325,11.1681 26.257325,1.820382 26.257325,1.820382 C 26.257325,1.820382 17.953734,3.006609 17.953734,3.006609 C 17.499337,5.11766 19.753442,5.153453 19.753442,6.80153 C 19.753442,9.317836 17.939221,10.156415 15.663551,10.552626 C 13.342143,10.956799 11.423521,10.748946 11.423521,8.140267 C 11.423521,6.371144 13.798115,5.679453 13.327039,3.667566 C 13.327039,3.667566 3.9999995,5 3.9999995,5 C 3.9999995,5 3.9999995,5 3.9999995,5"
         style="fill:none;fill-opacity:1;fill-rule:evenodd;stroke:url(#linearGradient3296);stroke-width:2;stroke-linecap:butt;stroke-linejoin:round;stroke-miterlimit:4;stroke-dasharray:none;stroke-opacity:1" />
    </g>
    <path
       id="path6380"
       d="M 2.9999995,31 C 2.9999995,31 12.327039,28.66824 12.327039,28.66824 L 10.32982,28.019304 C 10.32982,28.019304 1.0027809,30.351064 1.0027809,30.351064 L 2.9999995,31 z"
       style="fill:url(#linearGradient6912);fill-opacity:1;fill-rule:evenodd;stroke-width:1px;stroke-linecap:butt;stroke-linejoin:miter;stroke-opacity:1" />
    <path
       id="path6382"
       d="M 12.327039,28.66824 C 12.798115,26.471288 10.423521,26.712472 10.423521,24.943349 L 8.4263024,24.294413 C 8.4263024,26.063536 10.800896,25.822352 10.32982,28.019304 L 12.327039,28.66824 z"
       style="fill:url(#linearGradient6909);fill-opacity:1;fill-rule:evenodd;stroke-width:1px;stroke-linecap:butt;stroke-linejoin:miter;stroke-opacity:1" />
    <path
       id="path6384"
       d="M 10.423521,24.943349 C 10.423521,22.334671 12.342143,21.373073 14.663551,20.865265 L 12.666332,20.216329 C 10.344924,20.724137 8.4263024,21.685735 8.4263024,24.294413 L 10.423521,24.943349 z"
       style="fill:url(#linearGradient6906);fill-opacity:1;fill-rule:evenodd;stroke-width:1px;stroke-linecap:butt;stroke-linejoin:miter;stroke-opacity:1" />
    <path
       id="path6386"
       d="M 14.663551,20.865265 C 15.747302,20.628194 16.726398,20.532567 17.454725,20.769215 L 15.457506,20.12028 C 14.729179,19.883632 13.750084,19.979259 12.666332,20.216329 L 14.663551,20.865265 z"
       style="fill:url(#linearGradient6903);fill-opacity:1;fill-rule:evenodd;stroke-width:1px;stroke-linecap:butt;stroke-linejoin:miter;stroke-opacity:1" />
    <path
       id="path6392"
       d="M 16.953734,27.511566 C 16.953734,27.511566 25.257325,25.435669 25.257325,25.435669 L 23.260106,24.786733 C 23.260106,24.786733 14.956515,26.86263 14.956515,26.86263 L 16.953734,27.511566 z"
       style="fill:url(#linearGradient6894);fill-opacity:1;fill-rule:evenodd;stroke-width:1px;stroke-linecap:butt;stroke-linejoin:miter;stroke-opacity:1" />
    <path
       id="path6394"
       d="M 25.257325,25.435669 C 25.257325,25.435669 25.257325,16.087951 25.257325,16.087951 L 23.260106,15.439015 C 23.260106,15.439015 23.260106,24.786733 23.260106,24.786733 L 25.257325,25.435669 z"
       style="fill:url(#linearGradient6891);fill-opacity:1;fill-rule:evenodd;stroke-width:1px;stroke-linecap:butt;stroke-linejoin:miter;stroke-opacity:1" />
    <path
       id="path6396"
       d="M 25.257325,16.087951 C 25.257325,16.087951 25.257325,16.087951 25.257325,16.087951 L 23.260106,15.439015 C 23.260106,15.439015 23.260106,15.439015 23.260106,15.439015 L 25.257325,16.087951 z"
       style="fill:url(#linearGradient6888);fill-opacity:1;fill-rule:evenodd;stroke-width:1px;stroke-linecap:butt;stroke-linejoin:miter;stroke-opacity:1" />
    <path
       id="path6398"
       d="M 25.257325,16.087951 C 25.662016,15.885756 25.986858,15.871622 26.265766,15.962244 L 24.268548,15.313309 C 23.98964,15.222686 23.664798,15.23682 23.260106,15.439015 L 25.257325,16.087951 z"
       style="fill:url(#linearGradient6885);fill-opacity:1;fill-rule:evenodd;stroke-width:1px;stroke-linecap:butt;stroke-linejoin:miter;stroke-opacity:1" />
    <path
       id="path6402"
       d="M 28.172414,17.344787 C 28.296774,17.368846 28.430243,17.368898 28.57591,17.337359 L 26.578691,16.688423 C 26.433024,16.719963 26.299555,16.71991 26.175195,16.695852 L 28.172414,17.344787 z"
       style="fill:url(#linearGradient6879);fill-opacity:1;fill-rule:evenodd;stroke-width:1px;stroke-linecap:butt;stroke-linejoin:miter;stroke-opacity:1" />
    <path
       id="path6404"
       d="M 28.57591,17.337359 C 30.586919,16.901939 31,14.8805 31,12.5 L 29.002781,11.851064 C 29.002781,14.231564 28.5897,16.253003 26.578691,16.688423 L 28.57591,17.337359 z"
       style="fill:url(#linearGradient6876);fill-opacity:1;fill-rule:evenodd;stroke-width:1px;stroke-linecap:butt;stroke-linejoin:miter;stroke-opacity:1" />
    <path
       id="path6406"
       d="M 31,12.5 C 31,10.594544 30.735335,9.0231162 29.598352,8.6536883 L 27.601134,8.0047526 C 28.738116,8.3741806 29.002781,9.9456079 29.002781,11.851064 L 31,12.5 z"
       style="fill:url(#linearGradient6873);fill-opacity:1;fill-rule:evenodd;stroke-width:1px;stroke-linecap:butt;stroke-linejoin:miter;stroke-opacity:1" />
    <path
       id="path6412"
       d="M 25.257325,11.1681 C 25.257325,11.1681 25.257325,1.820382 25.257325,1.820382 L 23.260106,1.1714463 C 23.260106,1.1714463 23.260106,10.519164 23.260106,10.519164 L 25.257325,11.1681 z"
       style="fill:url(#linearGradient6864);fill-opacity:1;fill-rule:evenodd;stroke-width:1px;stroke-linecap:butt;stroke-linejoin:miter;stroke-opacity:1" />
    <g
       id="g3278"
       style="fill-opacity:1.0;fill:url(#linearGradient3288)">
      <path
         style="fill:url(#linearGradient3288);fill-opacity:1.0;fill-rule:evenodd;stroke-width:1px;stroke-linecap:butt;stroke-linejoin:miter;stroke-opacity:1"
         d="M 29.598352,8.6536883 C 29.314895,8.5615873 28.977219,8.5441954 28.57591,8.614962 L 26.578691,7.9660263 C 26.980001,7.8952597 27.317676,7.9126517 27.601134,8.0047526 L 29.598352,8.6536883 z"
         id="path6408" />
      <path
         style="fill:url(#linearGradient3288);fill-opacity:1.0;fill-rule:evenodd;stroke-width:1px;stroke-linecap:butt;stroke-linejoin:miter;stroke-opacity:1"
         d="M 28.57591,8.614962 C 27.190571,8.859252 26.929203,11.346608 25.257325,11.1681 L 23.260106,10.519164 C 24.931984,10.697672 25.193352,8.2103163 26.578691,7.9660263 L 28.57591,8.614962 z"
         id="path6410" />
    </g>
    <path
       id="path6414"
       d="M 25.257325,1.820382 C 25.257325,1.820382 25.257325,1.820382 25.257325,1.820382 L 23.260106,1.1714463 C 23.260106,1.1714463 23.260106,1.1714463 23.260106,1.1714463 L 25.257325,1.820382 z"
       style="fill:url(#linearGradient6861);fill-opacity:1;fill-rule:evenodd;stroke-width:1px;stroke-linecap:butt;stroke-linejoin:miter;stroke-opacity:1" />
    <path
       id="path6416"
       d="M 25.257325,1.820382 C 25.257325,1.820382 16.953734,3.006609 16.953734,3.006609 L 14.956515,2.3576733 C 14.956515,2.3576733 23.260106,1.1714463 23.260106,1.1714463 L 25.257325,1.820382 z"
       style="fill:#ffffff;fill-opacity:1;fill-rule:evenodd;stroke-width:1px;stroke-linecap:butt;stroke-linejoin:miter;stroke-opacity:1" />
    <path
       id="path6424"
       d="M 11.873847,10.551227 C 10.987487,10.263231 10.423521,9.5546024 10.423521,8.140267 L 8.4263024,7.4913313 C 8.4263024,8.9056668 8.9902685,9.6142955 9.876628,9.9022912 L 11.873847,10.551227 z"
       style="fill:url(#linearGradient6846);fill-opacity:1;fill-rule:evenodd;stroke-width:1px;stroke-linecap:butt;stroke-linejoin:miter;stroke-opacity:1" />
    <path
       id="path6426"
       d="M 10.423521,8.140267 C 10.423521,6.371144 12.798115,5.679453 12.327039,3.667566 L 10.32982,3.0186303 C 10.800896,5.0305173 8.4263024,5.7222083 8.4263024,7.4913313 L 10.423521,8.140267 z"
       style="fill:url(#linearGradient6843);fill-opacity:1;fill-rule:evenodd;stroke-width:1px;stroke-linecap:butt;stroke-linejoin:miter;stroke-opacity:1" />
    <path
       id="path6428"
       d="M 12.327039,3.667566 C 12.327039,3.667566 2.9999995,5 2.9999995,5 L 1.0027809,4.3510643 C 1.0027809,4.3510643 10.32982,3.0186303 10.32982,3.0186303 L 12.327039,3.667566 z"
       style="fill:#ffffff;fill-opacity:1;fill-rule:evenodd;stroke-width:1px;stroke-linecap:butt;stroke-linejoin:miter;stroke-opacity:1" />
    <path
       id="path6430"
       d="M 2.9999995,5 C 2.9999995,5 2.9999995,5 2.9999995,5 L 1.0027809,4.3510643 C 1.0027809,4.3510643 1.0027809,4.3510643 1.0027809,4.3510643 L 2.9999995,5 z"
       style="fill:url(#linearGradient6837);fill-opacity:1;fill-rule:evenodd;stroke-width:1px;stroke-linecap:butt;stroke-linejoin:miter;stroke-opacity:1" />
    <g
       id="g6917"
       style="fill-opacity:1;fill:url(#linearGradient6927)">
      <path
         style="fill:url(#linearGradient6927);fill-opacity:1.0;fill-rule:evenodd;stroke-width:1px;stroke-linecap:butt;stroke-linejoin:miter;stroke-opacity:1"
         d="M 17.454725,20.769215 C 18.255745,21.029482 18.753442,21.691662 18.753442,23.009617 L 16.756223,22.360681 C 16.756223,21.042726 16.258527,20.380547 15.457506,20.12028 L 17.454725,20.769215 z"
         id="path6388" />
      <path
         style="fill-opacity:1;fill-rule:evenodd;stroke-width:1px;stroke-linecap:butt;stroke-linejoin:miter;stroke-opacity:1"
         d="M 18.753442,23.009617 C 18.753442,24.657694 16.499337,25.579029 16.953734,27.511566 L 14.956515,26.86263 C 14.502118,24.930093 16.756223,24.008758 16.756223,22.360681 L 18.753442,23.009617 z"
         id="path6390" />
    </g>
    <g
       id="g6931"
       style="fill-opacity:1;fill:url(#linearGradient6942)">
      <path
         style="fill:url(#linearGradient6942);fill-opacity:1.0;fill-rule:evenodd;stroke-width:1px;stroke-linecap:butt;stroke-linejoin:miter;stroke-opacity:1"
         d="M 16.953734,3.006609 C 16.499337,5.11766 18.753442,5.153453 18.753442,6.80153 L 16.756223,6.1525943 C 16.756223,4.5045173 14.502118,4.4687243 14.956515,2.3576733 L 16.953734,3.006609 z"
         id="path6418" />
      <path
         style="fill:url(#linearGradient6942);fill-opacity:1.0;fill-rule:evenodd;stroke-width:1px;stroke-linecap:butt;stroke-linejoin:miter;stroke-opacity:1"
         d="M 18.753442,6.80153 C 18.753442,9.317836 16.939221,10.156415 14.663551,10.552626 L 12.666332,9.9036903 C 14.942002,9.5074793 16.756223,8.6689003 16.756223,6.1525943 L 18.753442,6.80153 z"
         id="path6420" />
      <path
         style="fill:url(#linearGradient6942);fill-opacity:1.0;fill-rule:evenodd;stroke-width:1px;stroke-linecap:butt;stroke-linejoin:miter;stroke-opacity:1"
         d="M 14.663551,10.552626 C 13.60073,10.73767 12.622338,10.794426 11.873847,10.551227 L 9.876628,9.9022912 C 10.625119,10.145491 11.603511,10.088735 12.666332,9.9036903 L 14.663551,10.552626 z"
         id="path6422" />
    </g>
    <path
       id="path6400"
       d="M 26.265766,15.962244 C 27.013618,16.205236 27.431222,17.201395 28.172414,17.344787 L 26.175195,16.695852 C 25.434004,16.552459 25.016399,15.5563 24.268548,15.313309 L 26.265766,15.962244 z"
       style="fill:#002f50;fill-opacity:1;fill-rule:evenodd;stroke-width:1px;stroke-linecap:butt;stroke-linejoin:miter;stroke-opacity:1" />
    <path
       id="path3267"
       d="M 2.9999995,5 C 2.9999995,5 2.9999995,31 2.9999995,31 C 2.9999995,31 12.327039,28.66824 12.327039,28.66824 C 12.798115,26.471288 10.423521,26.712472 10.423521,24.943349 C 10.423521,22.334671 12.342143,21.373073 14.663551,20.865265 C 16.939221,20.367462 18.753442,20.493312 18.753442,23.009617 C 18.753442,24.657694 16.499337,25.579029 16.953734,27.511566 C 16.953734,27.511566 25.257325,25.435669 25.257325,25.435669 C 25.257325,25.435669 25.257325,16.087951 25.257325,16.087951 C 26.929203,15.252634 27.238274,17.626981 28.57591,17.337359 C 30.586919,16.901939 31,14.8805 31,12.5 C 31,10.1195 30.586919,8.260342 28.57591,8.614962 C 27.190571,8.859252 26.929203,11.346608 25.257325,11.1681 C 25.257325,11.1681 25.257325,1.820382 25.257325,1.820382 C 25.257325,1.820382 16.953734,3.006609 16.953734,3.006609 C 16.499337,5.11766 18.753442,5.153453 18.753442,6.80153 C 18.753442,9.317836 16.939221,10.156415 14.663551,10.552626 C 12.342143,10.956799 10.423521,10.748946 10.423521,8.140267 C 10.423521,6.371144 12.798115,5.679453 12.327039,3.667566 C 12.327039,3.667566 2.9999995,5 2.9999995,5 C 2.9999995,5 2.9999995,5 2.9999995,5"
       style="fill:url(#linearGradient6694);fill-opacity:1;fill-rule:evenodd;stroke:none;stroke-width:1px;stroke-linecap:butt;stroke-linejoin:miter;stroke-opacity:1" />
    <path
       id="path6378"
       d="M 2.9999995,5 C 2.9999995,5 2.9999995,31 2.9999995,31 L 1.0027809,30.351064 C 1.0027809,30.351064 1.0027809,4.3510643 1.0027809,4.3510643 L 2.9999995,5 z"
       style="fill:url(#linearGradient6915);fill-opacity:1;fill-rule:evenodd;stroke-width:1px;stroke-linecap:butt;stroke-linejoin:miter;stroke-opacity:1" />
  </g>
</svg>
